<?xml version="1.0" encoding="utf-8"?>
<!-- Generator: Adobe Illustrator 18.0.0, SVG Export Plug-In . SVG Version: 6.00 Build 0)  -->
<!DOCTYPE svg PUBLIC "-//W3C//DTD SVG 1.1//EN" "http://www.w3.org/Graphics/SVG/1.1/DTD/svg11.dtd">
<svg version="1.1" id="Layer_1" xmlns="http://www.w3.org/2000/svg" xmlns:xlink="http://www.w3.org/1999/xlink" x="0px" y="0px"
	 viewBox="232.5 232.5 35 35" enable-background="new 232.5 232.5 35 35" xml:space="preserve">
<path fill="#717070" d="M253.9,245.2l-0.1-1.7c0-0.2-0.1-0.3-0.3-0.4c-0.4-0.1-1.3-0.3-1.8-0.7c-0.4-0.3-0.5-0.7-0.5-1.2l-0.1-0.7
	c0,0,0.1,0,0.1-0.1c0.1-0.1,0.1-0.2,0.1-0.3l-0.2-1.7c-0.1-0.4-0.4-0.7-0.8-0.7l0,0l0,0l0,0l0,0c-0.4,0-0.8,0.3-0.8,0.7l-0.1,0.9
	c0,0,0,0-0.1,0c-1.6,0-3,1.3-3,3c0,0.5,0.1,1.1,0.4,1.5l-0.1,1.3c-0.6,0.3-1.2,4.4-1.2,8.6c0,6.1,1.4,8.9,1.9,9l0,0l0,0h3h2.9
	c0.5,0,1.9-2.7,1.9-9C255.1,249.6,254.5,245.5,253.9,245.2z M249.1,240.1L249.1,240.1c0,0.2,0,0.3,0.1,0.4l0.1,0.1l-0.1,0.7
	c-0.1,0.5-0.2,0.9-0.5,1.2c-0.5,0.3-1.2,0.5-1.6,0.6c-0.1-0.2-0.1-0.5-0.1-0.7C246.9,241.1,247.9,240.1,249.1,240.1z"/>
</svg>
