<?xml version="1.0" encoding="utf-8"?>
<!-- Generator: Adobe Illustrator 18.0.0, SVG Export Plug-In . SVG Version: 6.00 Build 0)  -->
<!DOCTYPE svg PUBLIC "-//W3C//DTD SVG 1.1//EN" "http://www.w3.org/Graphics/SVG/1.1/DTD/svg11.dtd">
<svg version="1.1" id="Layer_1" xmlns="http://www.w3.org/2000/svg" xmlns:xlink="http://www.w3.org/1999/xlink" x="0px" y="0px"
	 viewBox="232.5 232.5 35 35" enable-background="new 232.5 232.5 35 35" xml:space="preserve">
<g>
	<path fill="#717070" d="M258.6,239.9h-7.4v-0.5c0-0.6-0.5-1-1-1c-0.6,0-1,0.5-1,1v0.5h-7.4c-0.4,0-0.8,0.3-0.8,0.8v11.5
		c0,0.4,0.3,0.8,0.8,0.8h6.5l-5.6,7.8c-0.2,0.3-0.2,0.8,0.2,1.1c0.1,0.1,0.3,0.1,0.4,0.1c0.2,0,0.5-0.1,0.6-0.3l5.5-7.7v7.6
		c0,0.4,0.3,0.8,0.8,0.8c0.4,0,0.8-0.3,0.8-0.8V254l5.5,7.7c0.2,0.2,0.4,0.3,0.6,0.3s0.3,0,0.4-0.1c0.3-0.2,0.4-0.7,0.2-1.1
		l-5.6-7.8h6.5c0.4,0,0.8-0.3,0.8-0.8v-11.5C259.4,240.2,259.1,239.9,258.6,239.9L258.6,239.9z M257.9,251.4h-15.4v-10h15.4V251.4
		L257.9,251.4z"/>
	<path fill="#717070" d="M245.9,247.5L245.9,247.5c0.5,0,1-0.1,1.4-0.2c-0.9,0.6-1.5,1.1-1.5,1.1c-0.2,0.1-0.3,0.4-0.1,0.6
		c0.1,0.2,0.4,0.3,0.6,0.2l4.9-2.6c-0.4,0.5-0.8,1.1-1.1,1.5c-0.1,0.2-0.1,0.4,0,0.5c0.1,0.2,0.3,0.2,0.5,0.2
		c0.2-0.1,0.4-0.1,0.6-0.2l-0.2,0.3c-0.1,0.2-0.1,0.3,0,0.5c0.1,0.1,0.2,0.2,0.4,0.2c0,0,0,0,0.1,0c0,0,1-0.1,1.5-0.3
		c0.2-0.1,0.4-0.3,0.3-0.6c-0.1-0.2-0.3-0.4-0.6-0.3c-0.1,0-0.3,0.1-0.5,0.1l0.6-1c0.1-0.2,0.1-0.4-0.1-0.6c-0.2-0.1-0.4-0.2-0.6,0
		c0.6-0.8,1.2-1.4,1.2-1.4c0.2-0.2,0.2-0.4,0-0.6c-0.1-0.2-0.4-0.2-0.6-0.1l-0.8,0.4c0.2-0.2,0.3-0.3,0.5-0.5s0.5-0.5,0.9-0.9
		c0.1,0,0.1-0.1,0.2-0.1c0.2-0.2,0.2-0.5,0-0.7s-0.5-0.2-0.7-0.1c-0.1,0-0.1,0.1-0.2,0.1l0,0c-2,1.7-4.1,3.4-7.1,3.6
		c-0.3,0-0.4,0.2-0.4,0.5C245.5,247.3,245.7,247.5,245.9,247.5L245.9,247.5z"/>
</g>
</svg>
