<?xml version="1.0" encoding="utf-8"?>
<!-- Generator: Adobe Illustrator 18.0.0, SVG Export Plug-In . SVG Version: 6.00 Build 0)  -->
<!DOCTYPE svg PUBLIC "-//W3C//DTD SVG 1.1//EN" "http://www.w3.org/Graphics/SVG/1.1/DTD/svg11.dtd">
<svg version="1.1" id="Layer_1" xmlns="http://www.w3.org/2000/svg" xmlns:xlink="http://www.w3.org/1999/xlink" x="0px" y="0px"
	 viewBox="232.5 232.5 35 35" enable-background="new 232.5 232.5 35 35" xml:space="preserve">
<g>
	<rect x="245.5" y="241.3" fill="#717070" width="8.7" height="4.8"/>
	<path fill="#717070" d="M243.8,248.2h12.1c0.3,0,0.5-0.2,0.5-0.5v-8.1c0-0.3-0.2-0.5-0.5-0.5h-4.6l-1-1.9c-0.1-0.2-0.2-0.3-0.4-0.3
		s-0.3,0.1-0.4,0.2l-1.3,2h-4.4c-0.3,0-0.5,0.2-0.5,0.5v8.1C243.3,248,243.5,248.2,243.8,248.2L243.8,248.2z M249.8,238.4l0.4,0.8
		h-0.9L249.8,238.4z M244.5,240.8c0-0.3,0.2-0.5,0.5-0.5h9.7c0.3,0,0.5,0.2,0.5,0.5v5.8c0,0.3-0.2,0.5-0.5,0.5H245
		c-0.3,0-0.5-0.2-0.5-0.5V240.8z"/>
	<path fill="#717070" d="M254.8,252.6c-0.3,0-0.5,0.2-0.5,0.5c0,2.5-2,4.6-4.6,4.6s-4.6-2-4.6-4.6c0-0.3-0.2-0.5-0.5-0.5
		c-0.2,0-0.3,0.1-0.4,0.2v-0.6c0.4-0.2,0.7-0.6,0.7-1c0-0.6-0.5-1.1-1.1-1.1s-1.1,0.5-1.1,1.1c0,0.5,0.3,0.8,0.7,1v10.1
		c0,0.3,0.2,0.5,0.5,0.5s0.5-0.2,0.5-0.5V254c0.4,2.6,2.7,4.6,5.4,4.6c3.1,0,5.5-2.5,5.5-5.5C255.3,252.8,255.1,252.6,254.8,252.6
		L254.8,252.6z"/>
	<path fill="#717070" d="M242.6,252.6c-0.3,0-0.5,0.2-0.5,0.5c0,2.5-2,4.6-4.6,4.6c-0.3,0-0.5,0.2-0.5,0.5s0.2,0.5,0.5,0.5
		c3.1,0,5.5-2.5,5.5-5.5C243.1,252.8,242.9,252.6,242.6,252.6L242.6,252.6z"/>
	<path fill="#717070" d="M257.1,251.2c0-0.6-0.5-1.1-1.1-1.1s-1.1,0.5-1.1,1.1c0,0.5,0.3,0.8,0.7,1v10.1c0,0.3,0.2,0.5,0.5,0.5
		s0.5-0.2,0.5-0.5v-10.1C256.8,252.1,257.1,251.7,257.1,251.2L257.1,251.2z"/>
	<path fill="#717070" d="M262.2,257.6c-2.5,0-4.6-2-4.6-4.6c0-0.3-0.2-0.5-0.5-0.5s-0.5,0.2-0.5,0.5c0,3.1,2.5,5.5,5.5,5.5
		c0.3,0,0.5-0.2,0.5-0.5C262.7,257.9,262.5,257.6,262.2,257.6L262.2,257.6z"/>
</g>
</svg>
