<?xml version="1.0" encoding="utf-8"?>
<!-- Generator: Adobe Illustrator 18.0.0, SVG Export Plug-In . SVG Version: 6.00 Build 0)  -->
<!DOCTYPE svg PUBLIC "-//W3C//DTD SVG 1.1//EN" "http://www.w3.org/Graphics/SVG/1.1/DTD/svg11.dtd">
<svg version="1.1" id="Layer_1" xmlns="http://www.w3.org/2000/svg" xmlns:xlink="http://www.w3.org/1999/xlink" x="0px" y="0px"
	 viewBox="232.5 234 35 35" enable-background="new 232.5 234 35 35" xml:space="preserve">
<path fill="#717070" d="M255.5,247.1l-1.5,13.8l0,0h-7.7l-1.5-13.8h1.6l-0.6-4.4l1.5-0.2l0.6,4.6h1l-0.2-3l1.5-0.1l0.3,3.1h1.2v-5.4
	h1.5c0,0,0.4,0,0.8,0.3c0.3,0.3,0.5,0.7,0.6,1.2c0.1,0.9,0,2.1,0,2.1c0,0.2-0.1,0.3-0.3,0.4h-0.1c-0.2,0-0.4-0.2-0.4-0.4
	c0,0,0-1.2,0-2.1c0-0.3-0.1-0.5-0.3-0.6c-0.1-0.1-0.3-0.1-0.4-0.1v4.6H255.5z M245.8,242.3l1.5-0.2v-0.4l-1.5,0.2V242.3z
	 M245.7,241.5l1.5-0.2v-0.4l-1.5,0.2V241.5z M245.6,240.8l1.5-0.2l-0.1-0.4c0,0-0.1-0.9-0.9-0.8c-0.8,0.1-0.6,1-0.6,1L245.6,240.8z
	 M248.7,243.8l1.5-0.1v-0.4l-1.5,0.1V243.8z M248.6,243l1.5-0.1v-0.4l-1.5,0.1V243z M248.5,242.2l1.5-0.1v-0.4c0,0,0-0.9-0.8-0.9
	c-0.8,0.1-0.7,1-0.7,1V242.2z M253.2,241h-0.3v-1.2h-0.8v1.2h-0.4v0.4h1.5V241z"/>
</svg>
