<?xml version="1.0" encoding="utf-8"?>
<!-- Generator: Adobe Illustrator 19.0.0, SVG Export Plug-In . SVG Version: 6.00 Build 0)  -->
<svg version="1.1" id="Layer_1" xmlns="http://www.w3.org/2000/svg" xmlns:xlink="http://www.w3.org/1999/xlink" x="0px" y="0px"
	 width="31.2px" height="37.6px" viewBox="0 0 31.2 37.6" enable-background="new 0 0 31.2 37.6" xml:space="preserve">
<g id="XMLID_1_">
	<path fill="#706F6F" d="M24.8,3.3h-7l-1.6-2.9C16.1,0.2,15.9,0,15.6,0c-0.3,0-0.5,0.1-0.6,0.3l-1.9,3H6.4C6,3.3,5.7,3.7,5.7,4.1
		v12.2C5.7,16.7,6,17,6.4,17h18.4c0.4,0,0.7-0.3,0.7-0.7V4.1C25.5,3.7,25.2,3.3,24.8,3.3z M15.5,2.2l0.6,1.1h-1.3L15.5,2.2z
		 M21.8,6.1c-0.1,0.1-0.2,0.1-0.3,0.2c-0.6,0.6-1,1-1.4,1.3c-0.2,0.2-0.5,0.5-0.7,0.7l1.2-0.6c0.3-0.2,0.7-0.1,0.9,0.2
		c0.2,0.3,0.2,0.7,0,0.9c0,0-0.9,1-1.9,2.2c0.3-0.2,0.6-0.1,0.8,0.1c0.2,0.2,0.3,0.6,0.2,0.9l-0.8,1.5c0.3-0.1,0.5-0.1,0.7-0.2
		c0.4-0.1,0.8,0.1,0.9,0.5c0.1,0.4-0.1,0.8-0.5,0.9C20,14.8,18.5,15,18.5,15c0,0-0.1,0-0.1,0c-0.2,0-0.4-0.1-0.6-0.3
		c-0.2-0.2-0.2-0.5,0-0.7l0.2-0.4c-0.3,0.2-0.6,0.3-0.9,0.4c-0.3,0.1-0.6,0-0.8-0.2c-0.2-0.2-0.2-0.5-0.1-0.8c0.4-0.6,1-1.5,1.7-2.3
		l-7.5,4c-0.3,0.2-0.7,0.1-0.9-0.3s-0.1-0.7,0.2-0.9c0,0,1-0.7,2.3-1.6c-0.7,0.2-1.4,0.3-2.1,0.3c0,0,0,0-0.1,0
		c-0.4,0-0.7-0.3-0.7-0.6c0-0.4,0.3-0.7,0.6-0.8c4.5-0.4,7.8-2.9,10.8-5.5v0c0.1-0.1,0.2-0.2,0.3-0.2c0.3-0.3,0.7-0.2,1,0.1
		C22.1,5.4,22.1,5.8,21.8,6.1z"/>
	<g>
		<path fill="#706F6F" d="M27,37.6c-0.5,0-0.9-0.4-0.9-0.9v-0.9H27c1.4,0,1.7-0.5,1.7-0.5v1.3c0,0.5-0.4,0.9-0.9,0.9H27z M27,37.6"
			/>
		<path fill="#706F6F" d="M3.3,37.6c-0.5,0-0.9-0.4-0.9-0.9v-1.3c0,0,0.4,0.5,1.7,0.5H5v0.9c0,0.5-0.4,0.9-0.9,0.9H3.3z M3.3,37.6"
			/>
		<path fill="#706F6F" d="M31.2,28.6c0-1.1-0.9-2-2-2c-0.9,0-1.6,0.5-1.9,1.3L26.4,30c-0.1,0-7.5-0.9-10.7-0.9
			c-3.3,0-10.8,0.9-10.9,1l-0.9-2c-0.2-0.8-1-1.4-1.9-1.4c-1.1,0-2,0.9-2,2c0,0.9,0.6,1.7,1.5,1.9l0.4,3.2c0.4,1.3,2.3,1.4,2.3,1.4
			H27c0,0,1.9,0,2.3-1.4l0.4-3.2C30.6,30.3,31.2,29.5,31.2,28.6L31.2,28.6z M31.2,28.6"/>
		<path fill="#706F6F" d="M2,25.6c1.3,0,2.5,0.9,2.9,2.1l0.4,1c0.8-0.3,8.4-0.6,10.3-0.6c1.9,0,9.4,0.3,10.2,0.6l0.5-1.1
			c0.5-1.2,1.6-1.9,2.8-1.9c0.1,0,0.2,0,0.3,0c0,0,0,0,0,0c0-2.3-1.9-4.2-4.2-4.2H5.9c-2.3,0-4.2,1.9-4.2,4.1c0,0,0,0,0,0
			C1.8,25.6,1.9,25.6,2,25.6L2,25.6z M2,25.6"/>
	</g>
</g>
</svg>
