<?xml version="1.0" standalone="no"?>
<!DOCTYPE svg PUBLIC "-//W3C//DTD SVG 1.1//EN" "http://www.w3.org/Graphics/SVG/1.1/DTD/svg11.dtd" >
<svg xmlns="http://www.w3.org/2000/svg">
<metadata></metadata>
<defs>
<font id="luna_barregular" horiz-adv-x="1081" >
<font-face units-per-em="2048" ascent="1638" descent="-410" />
<missing-glyph horiz-adv-x="1073" />
<glyph horiz-adv-x="0" />
<glyph unicode="&#xd;" horiz-adv-x="1073" />
<glyph unicode=" "  horiz-adv-x="1073" />
<glyph unicode="&#x09;" horiz-adv-x="1073" />
<glyph unicode="&#xa0;" horiz-adv-x="1073" />
<glyph unicode="!" horiz-adv-x="417" d="M-4 1626q0 -51 84 -377q137 -520 137 -637q0 -47 47 -47q49 0 49 47q0 129 -139 662q-82 313 -82 352q0 47 -49 47q-47 0 -47 -47zM137 115q-18 -41 27 -86l72 -29q55 2 145 100l16 21q31 35 0 63q-32 29 -59 -2l-23 -24l-6 -6q-14 10 -28 10q-125 0 -144 -47z" />
<glyph unicode="&#x22;" horiz-adv-x="516" d="M41 1583q-23 -41 22 -70l-8 7q16 -25 19 -203q2 -145 18 -182q20 -49 70 -29q47 20 26 70q-6 18 -8 141q-2 143 -14 199q-16 76 -64 96q-38 14 -61 -29zM254 1468q0 -86 90 -278l18 -43q14 -31 50 -31q29 0 44 23.5t5 50.5l-23 45q-80 170 -80 231q0 16 4 27 q20 49 -28 70q-50 18 -70 -31q-10 -29 -10 -64z" />
<glyph unicode="#" horiz-adv-x="2091" d="M-4 1096q0 31 33 45q84 41 798 151q-16 115 -16 178q0 125 59 125q45 0 45 -45q0 -14 -5 -41.5t-5 -35.5q0 -53 17 -166q90 12 178 24q-10 29 -19 55q-14 43 -14 68q0 47 45 47q37 0 59 -65q12 -47 25 -93q299 35 492 35q319 0 319 -116q0 -76 -147 -113 q-100 -25 -220 -25q-117 0 -116 54q0 47 53 47q10 0 31.5 -2t29.5 -2q121 0 263 41q-76 16 -199 16q-174 0 -477 -35q45 -158 67 -262q240 33 412 33q180 0 256 -27q35 -14 35 -47q0 -23 -17.5 -38t-46.5 -9q-127 25 -229 25q-164 0 -393 -33q8 -63 8 -94q0 -100 -53 -101 q-43 0 -47 70q-2 55 -3 110q-575 -98 -725 -190q-16 -8 -32 -8q-47 0 -47 49q0 74 483 186q-2 18 -49 287q-268 -39 -494 -82q-18 -2 -157 -37q-115 -29 -148 -28q-49 0 -49 49zM940 1208l47 -280q109 23 209 39q-25 112 -68 266q-90 -12 -188 -25z" />
<glyph unicode="$" horiz-adv-x="733" d="M-2 700q0 47 104 111q78 45 154 70q-67 298 -133 546q0 -43 -45 -43t-45 78q0 47 18 109q25 78 62 78q18 0 39 -21q39 -39 190 -723q53 8 104 8q80 0 152 -24q100 -35 100 -98q0 -43 -45 -43q-20 0 -78.5 38.5t-125.5 38.5q-43 0 -87 -8l17 -86q193 -16 192 -121 q0 -66 -143 -127q51 -279 51 -395q0 -88 -47 -88q-37 0 -43 35q2 -16 2 61q0 100 -45 353q-12 -6 -27 -7q-43 0 -43 43q0 31 52 54l-21 106q-37 0 -105.5 -3t-101.5 -3q-102 0 -102 61zM143 729q49 4 144 6l-13 58q-68 -25 -131 -64zM399 639l13 -66q25 10 67 37 q-21 21 -80 29z" />
<glyph unicode="%" horiz-adv-x="1167" d="M-8 1393q0 -49 39 -88t104 -39q117 0 461 176q205 106 252 112q14 -78 -266 -600q-172 -324 -240 -479q-92 -209 -92 -319q0 -55 29 -107q35 -57 86 -57q66 0 65 80q0 25 -11 56.5t-40 31.5q-27 0 -27 -4q0 147 322 749q150 279 203 398q73 163 73 247q0 111 -90 111 q-66 0 -311 -127q-328 -168 -414 -168q-39 0 -39 29q0 41 137 92q119 43 170.5 43t51.5 53q0 51 -52 51q-82 0 -210 -51q-158 -63 -193 -145q-8 -23 -8 -45zM809 281q0 -33 12 -66q31 -78 103 -78q57 0 121.5 56.5t64.5 109.5q0 39 -43 47q-43 6 -59 -39q-6 -18 -32 -42.5 t-44 -24.5q-20 0 -21 37q0 37 47 61q41 23 80 23q51 0 52 51q0 51 -52 51q-90 0 -159.5 -53.5t-69.5 -132.5z" />
<glyph unicode="&#x26;" horiz-adv-x="495" d="M0 829q-16 -39 15.5 -69.5t86.5 -30.5q29 0 99 12q31 6 49 9l-8 -19l-23 -82v-10q0 -20 33 -31q39 -10 55 41l15 45q18 41 18 66q0 33 -22.5 56.5t-61.5 23.5q-25 0 -63 -9q-53 -10 -68 -12q61 27 159.5 51.5t142.5 24.5t44 45q0 43 -43 43q-74 0 -223 -43 q-180 -54 -205 -111zM70 1608q-12 -29 3 -65t46 -30l14 -28q14 -41 55 -27t27 55q-45 123 -96 125q-35 1 -49 -30zM113 150q53 -147 114 -150q37 -2 54 35q20 45 -19 84q12 -14 12 -31q0 -18 -12 -31q-31 -33 -61 0q-8 6 4 19q18 23 39 8q-14 20 -49 94q-15 41 -56 27 t-26 -55z" />
<glyph unicode="'" horiz-adv-x="428" d="M18 1323q0 104 197 246q72 53 100 53q70 0 70 -66q0 -25 -39 -53q-27 -20 -55 -41l-68 -49q4 -16 4 -37q0 -55 -27.5 -103t-62.5 -44q-119 12 -119 94z" />
<glyph unicode="(" horiz-adv-x="505" d="M0 557q0 328 162 688q123 274 225 377q16 16 39 16q25 0 41 -16q39 -39 0 -78q-90 -88 -205 -342q-152 -342 -151 -645q0 -59 6 -115q20 -199 112 -276q70 -55 197 -55q57 0 57 -56q0 -57 -82 -57q-26 0 -73 8q-328 55 -328 551z" />
<glyph unicode=")" horiz-adv-x="833" d="M-16 1593q0 61 61 62q31 0 98 -51l90 -74q270 -211 361 -307q199 -211 199 -410q0 -186 -125 -430q-121 -233 -275 -365q-20 -18 -45 -18q-59 0 -59 59q0 25 16 45q31 31 88 93q109 125 189 286q88 186 88 330q0 154 -178 338q-100 102 -330 276q-178 135 -178 166z" />
<glyph unicode="*" horiz-adv-x="780" d="M8 1360q0 -59 309 -223q-78 -51 -137 -95q0 37 -37 37q-29 0 -35 -35.5t-8 -66.5q-53 -49 -53 -72q0 -53 51 -53q47 0 68 86q207 170 240 156q8 -49 20 -148q-8 6 -18 6q-33 0 -33 -59q0 -61 49 -62q78 0 78 97q0 45 -15 129q90 -41 113 -41q66 0 66 80q0 35 -35 34 q-39 0 -39 -36q-25 4 -121 49q-2 6 56.5 35.5t74.5 29.5q10 0 45 -9t53 -9q39 0 39 37q0 55 -133 55q-45 0 -151 -61q-23 98 -45 194q-27 121 -27 197t-33 76q-39 0 -39 -78q0 -84 27 -213q25 -106 49 -213q-205 104 -315 202q-12 10 -27 11q-37 0 -37 -37z" />
<glyph unicode="+" horiz-adv-x="1419" d="M16 449q0 35 33 49q78 33 422 100q-23 172 -27 197q-25 139 -51 168q-2 10 -2 18q0 59 55 59q23 0 37 -18q39 -55 66 -195q6 -25 31 -209q446 82 657 82q45 0 78 -4q47 -6 47 -53q-1 -65 -62 -57q-29 4 -67 4q-197 0 -637 -80q43 -281 115 -420q8 -12 8 -27 q0 -53 -60 -53q-31 0 -45 29q-80 154 -127 450q-328 -66 -395 -94q-12 -4 -22 -4q-53 0 -54 58z" />
<glyph unicode="," horiz-adv-x="266" d="M45 -57q0 23 28.5 57.5t28.5 67.5q0 18 -13 39.5t-13 39.5q0 61 49 62q31 0 55 -57q23 -47 23 -86q0 -49 -31 -113q-35 -74 -78 -74q-49 0 -49 64z" />
<glyph unicode="-" d="M6 639q0 68 94 68q49 0 287 77q84 35 170 68q113 45 170 45q80 0 215 -45q47 -16 47 -66q0 -29 -19.5 -49t-47.5 -20q-23 0 -91.5 21.5t-105.5 21.5q-41 0 -147 -45q-147 -59 -152 -62q-256 -84 -328 -84q-92 0 -92 70z" />
<glyph unicode="." horiz-adv-x="346" d="M33 109q0 -45 30.5 -76t73.5 -31q25 0 67 43t42 68q0 35 -41 64.5t-78 29.5q-41 0 -67.5 -28.5t-26.5 -69.5z" />
<glyph unicode="/" horiz-adv-x="1007" d="M-2 49q0 8 2 17q68 201 455 872q367 637 432 702q35 35 71 0q39 -37 3 -75q-59 -66 -414 -678q-381 -657 -447 -854q-16 -49 -65 -33q-37 12 -37 49z" />
<glyph unicode="0" horiz-adv-x="2445" d="M-4 188q0 -246 461 -321q168 -27 391 -27q498 0 928 115q475 129 540 324q12 41 13 83q0 125 -117 242q-170 170 -563 309q-354 125 -566 125q-47 0 -71 -8q-362 -129 -615 -293q-401 -264 -401 -549zM123 188q0 176 321 408q289 209 607 315q12 4 36 4q168 0 496 -112 q381 -129 539 -287q82 -82 82 -154q-1 -20 -9 -43q-45 -139 -477 -247q-418 -106 -870 -107q-207 0 -371 27q-354 57 -354 196z" />
<glyph unicode="1" horiz-adv-x="2996" d="M0 -199q0 49 129 99q113 41 176 41q16 0 39 -17.5t23 -34.5q0 -6 -7 -10q256 41 621 80q309 33 621 64q170 20 507 49q-133 328 -149 612q-98 -109 -234 -219q-184 -152 -268 -152q-33 0 -53.5 19.5t-20.5 44.5q0 41 54 51q86 16 282 190q176 156 244 250q29 266 131 267 q68 0 68 -72q0 -104 -84 -234q-4 -45 -4 -73q0 -272 147 -654q16 -6 74 -6q121 0 293 21q186 21 231 41q18 8 35 8q57 0 57 -55q0 -20 -14 -39q-51 -51 -576 -103q-340 -29 -680 -57q-170 -18 -1327 -148q-41 -8 -82 -14q-70 -10 -116 -10q-117 0 -117 61z" />
<glyph unicode="2" horiz-adv-x="1265" d="M-25 565q0 20 17 39q90 113 387 264q309 158 539 199q272 51 272 -102q0 -80 -291 -252q-264 -154 -530 -307q-277 -179 -254 -277q6 -29 80 -29q25 0 63.5 3t46.5 3q195 0 723 46q74 6 70 6q70 0 69 -49q0 -45 -45 -58q-4 0 -84 -8q-555 -47 -833 -47q-186 0 -203 119 q-18 143 266 344q141 98 529 307q281 152 266 186q-12 25 -62 25q-135 0 -460 -160q-313 -154 -473 -289q-18 -16 -41 -16q-51 0 -52 53z" />
<glyph unicode="3" horiz-adv-x="1617" d="M-430 -217q0 166 557 242q346 47 713 47q174 0 221 -4q172 -18 172 -91q0 -102 -125 -102q-59 0 -123 16q-90 20 -90 58q0 10 6 22q-55 6 -170 6q-328 0 -635 -47q-375 -57 -391 -151q-10 -63 291 -94q188 -20 373 -21q354 0 641 76q436 113 436 358q0 207 -207 312 q-156 80 -440 104q-205 8 -412 16q-121 6 -121 62v2q0 18 21 41q29 33 190 90q106 37 215 74q-88 4 -254 4q-8 0 -85 -5t-128 -5q-176 0 -176 57q0 61 160 61q35 0 107.5 -3t109.5 -3q6 0 61 2h93q297 0 297 -88q0 -61 -156 -121q-102 -35 -207 -67q418 -6 651 -84 q381 -125 381 -449q0 -307 -465 -444q-309 -90 -719 -90q-244 0 -452 35q-340 55 -340 184z" />
<glyph unicode="4" horiz-adv-x="1290" d="M8 395q0 76 256 74q106 66 213 133q121 74 217 123q-8 12 -8 25q0 41 80 69q59 23 108 25l-98 438q-55 272 -55 438q0 49 51 49q49 0 49 -49q0 -150 47 -389q2 -10 85 -386t114 -558q279 -43 363 -70q33 -10 32 -45q0 -51 -47 -51q-49 0 -164 27q-139 35 -168 39 q25 -170 25 -287q0 -72 -10 -127q-6 -41 -47 -41q-59 0 -50 57q6 49 7 115q0 117 -27 299q-397 53 -692 66q-111 -68 -170 -68t-96 55q-14 20 -15 39zM438 461q231 -14 527 -58q-25 134 -62 306l-4 -2q-240 -102 -461 -246z" />
<glyph unicode="5" horiz-adv-x="1746" d="M-152 -43q0 -33 11 -68q45 -156 499 -155q223 0 441 41q442 82 681.5 280.5t239.5 481.5q0 268 -200 436q-250 203 -699 203q-92 0 -178 -11q-147 -16 -283 -80q37 111 91 242q82 55 280 113q182 53 246 53q57 0 57 59q0 57 -57 58q-78 0 -275 -58q-219 -65 -319 -133 q-35 -23 -104 -215q-37 -104 -74 -211q-6 -18 -6 -32q0 -51 55 -52q29 0 59 19q66 41 123 65q104 45 219 58q78 10 162 10q412 0 629 -178q143 -117 158 -301q37 -446 -607 -641q-301 -90 -626 -91q-160 0 -277 21q-109 23 -125 51q-6 18 -6 33q0 68 92 123q223 137 715 137 q109 0 201 -10h-2q0 -47 69.5 -89t128.5 -42q37 0 65 27.5t28 66.5q0 74 -76 108q-117 53 -408 54q-252 0 -473 -45q-254 -53 -364 -150q-90 -78 -91 -178z" />
<glyph unicode="6" horiz-adv-x="2295" d="M-4 1028q0 158 37 363q51 283 137 282q57 0 57 -53q0 -23 -12 -49q-100 -219 -100 -549q0 -666 485 -909q147 287 457 495q324 221 633 221q172 0 342 -77q213 -96 213 -250q0 -195 -250 -410q-267 -227 -740 -227q-600 0 -919 276q-340 295 -340 887zM711 70 q256 -84 544 -84q428 0 662 200q70 57 131 146q72 106 72 174q0 96 -172 156q-133 47 -254 47q-537 0 -983 -639z" />
<glyph unicode="7" horiz-adv-x="815" d="M-711 1317q0 -59 58 -60q8 0 18 3q92 27 408 57q326 29 559 29q201 0 241 -25q8 -14 9 -53q0 -70 -37 -295q-53 -317 -53 -465q0 -98 34 -223q47 -168 123 -168q74 0 74 102q0 61 -21 178q-8 45 -53 45q-18 0 -35 -10q-4 55 -4 76q0 137 49 446q39 231 39 312 q0 98 -41 139q-59 59 -362 59q-246 0 -590 -37q-297 -32 -373 -55q-43 -12 -43 -55z" />
<glyph unicode="8" horiz-adv-x="2314" d="M12 207q0 -231 402 -342q260 -72 600 -72q440 0 772 117q371 129 438 358q10 33 10 66q0 70 -41 131q-111 160 -501 254q-238 59 -521 82q-117 8 -235 8q258 100 283 262q2 18 2 35q0 92 -78 131q-43 23 -109 23q-152 0 -385 -101q8 14 8 31q0 51 -57 51q-160 0 -305 -82 q-178 -100 -178 -266t323 -170q-137 -86 -260 -213q-135 -139 -160 -240q-8 -33 -8 -63zM131 209q0 98 184 270q172 162 279 191q160 23 346 22q113 0 223 -10q377 -29 621 -98q266 -78 311 -185q10 -27 10 -51q0 -174 -442 -303q-401 -115 -836 -115q-254 1 -383 50 q-160 61 -200 86q-113 63 -113 143zM236 893q0 100 118 166q94 51 211 61q-176 -86 -235 -145q-18 -18 -19 -41q0 -25 18.5 -43.5t43.5 -18.5q23 0 41 19q66 68 276 158q223 94 342 94q80 0 80 -43q0 -74 -192 -162q-213 -98 -453 -98q-39 0 -76 2q-78 6 -123 24 q-33 14 -32 27z" />
<glyph unicode="9" horiz-adv-x="1472" d="M-1176 1470q0 129 392 181q217 29 487 28q516 0 913 -96q627 -152 627 -502q0 -614 -592 -856q-45 -20 -86 -20q-92 0 -92 92q0 41 21 86q25 57 59 57q57 0 57 -53q0 -27 -12 -61q266 111 395 288q135 186 135 467q0 31 -45 128.5t-69 97.5q-16 0 -16.5 -52.5 t-57.5 -58.5q-16 -2 -319 -2q-1796 0 -1797 276zM-1044 1466q88 -164 1384 -163q-12 0 600 6q76 2 76 12q0 12 -73 37.5t-142 50.5q-396 156 -1047 156q-229 0 -481 -21q-344 -29 -317 -78z" />
<glyph unicode=":" horiz-adv-x="313" d="M33 109q0 -45 30.5 -76t73.5 -31q25 0 67 43t42 68q0 35 -41 64.5t-78 29.5q-41 0 -67.5 -28.5t-26.5 -69.5zM35 514q0 143 84 143q100 0 100 -143q0 -37 -26.5 -65.5t-63.5 -28.5t-65.5 27.5t-28.5 66.5z" />
<glyph unicode=";" horiz-adv-x="368" d="M41 -137q0 29 96 95.5t96 123.5t-76.5 96t-76.5 66q0 51 49 51q68 0 135.5 -71.5t67.5 -139.5q0 -131 -215 -262q-12 -8 -27 -8q-49 0 -49 49zM109 504q0 88 51 88q61 0 61 -88q0 -57 -55 -58q-57 0 -57 58z" />
<glyph unicode="&#x3c;" horiz-adv-x="1013" d="M-6 236q4 -37 43 -52q29 -8 137 -18q494 -41 690 -174q25 -18 49 -19q20 0 37 13q33 27 19 69q-25 78 -121 78q4 0 -14 -8q-223 111 -592 143q205 100 438 297q227 188 227 246q0 37 -41 49q-36 11 -61 -26q-43 -68 -266 -246q-268 -211 -447 -266q-104 -31 -98 -86z" />
<glyph unicode="=" d="M6 268q0 66 94 66q49 0 287 76q84 33 170 65q111 43 170 43q80 0 215 -45q47 -16 47 -63q0 -27 -19.5 -46.5t-47.5 -19.5q-23 0 -91.5 20.5t-105.5 20.5q-43 0 -147 -43q-147 -59 -152 -59q-256 -82 -328 -82q-92 0 -92 67zM6 647q0 66 94 66q49 0 287 75q84 33 170 66 q111 43 170 43q80 0 215 -45q47 -14 47 -61q0 -29 -19.5 -48.5t-47.5 -19.5q-23 0 -91.5 20.5t-105.5 20.5q-43 0 -147 -41q-147 -59 -152 -61q-256 -80 -328 -80q-92 0 -92 65z" />
<glyph unicode="&#x3e;" horiz-adv-x="1009" d="M20 678q0 -45 46 -94q51 -59 131 -84q45 -14 323 -23q268 -8 350 -20q-47 -41 -196 -154q-115 -86 -275 -223q-14 -10 -34 -29q-53 -53 -54 -94q0 -29 24.5 -52.5t57.5 -8.5q57 23 80 129q74 66 258 204q168 127 215 171t47 75q0 53 -90 70q-80 16 -381 24 q-133 4 -299 19q-49 16 -84 49q-25 27 -26 43q-9 45 -52 41q-41 -4 -41 -43z" />
<glyph unicode="?" horiz-adv-x="2107" d="M-33 1130q-2 -35 33 -55t113 -20q72 0 391 47l182 28q57 8 49 56q-6 49 -49 43l-201 -29q-115 -20 -329 -45q256 117 686 236q516 145 813 147q49 2 119 -8q104 -16 102 -45q-12 -78 -512 -367q-279 -160 -371 -229q-131 -98 -131 -170q0 -47 33 -72q23 -14 53 -14 q29 0 101 20l28 9q20 6 35.5 24.5t11.5 38.5q-12 45 -49 37l-59 -14q-14 -4 -45 -13q43 68 442 297q264 152 322 193q240 162 239 262q0 45 -32 78q-74 74 -281 73q-301 0 -852 -155q-295 -82 -498 -158q-223 -82 -299 -131q-43 -31 -45 -64zM840 86q0 -72 57 -86 q45 -12 96 37q31 31 -2 67q-14 16 -41 13q10 16 11 28q0 20 -15 35q-34 35 -69 0q-37 -37 -37 -94z" />
<glyph unicode="@" horiz-adv-x="2144" d="M0 754q0 -276 303 -506q250 -188 539 -248q80 -16 143 -16q178 0 201 116q14 61 -49 97q-39 18 -111 18q-70 0 -117 -22q-53 -27 -47 -76q-279 59 -508 239q-281 221 -227 471q72 358 375 541q254 152 604 152q264 0 504 -99q307 -125 313 -346q8 -272 -358 -467 q-68 -35 -240 -86q-213 -59 -348 -59q-190 0 -168 127q16 104 49 104q18 0 36.5 -35.5t18.5 -62.5q-43 -18 -41 -55q2 -55 54 -56q100 0 106 101q4 70 -48 146.5t-124 84.5q-133 14 -170 -209q-2 -20 -2 -39q0 -102 86 -163.5t250 -61.5q297 0 596 160q432 231 422 573 q-8 279 -346 436q-271 125 -586 125q-399 0 -690 -186q-330 -211 -410 -600q-10 -49 -10 -98z" />
<glyph unicode="A" horiz-adv-x="2387" d="M55.5 103.5q32.5 24.5 225.5 48.5q125 14 249 26q74 10 525 103q20 90 55 272q16 115 16 553q0 76 -29.5 196.5t-29.5 176.5q0 53 53 53q51 0 74 -90q12 -63 25 -129q10 -43 63 -148q16 23 45 23q53 0 53 -49q0 -23 -24 -99q184 -295 520 -573l57 14q276 74 439 148 q12 6 26 6q51 0 51 -51q0 -27 -26 -49q-61 -47 -443 -150q150 -98 297 -197q233 -158 234 -200q0 -72 -119 -72q-227 0 -610 84q-444 96 -608 113q-16 -133 -17 -133q-20 -90 -70 -91q-63 0 -63 121q0 31 8 101q-152 -6 -452 -35q-119 -23 -240 -45q-143 -25 -242 -25 q-75 0 -75 48q0 25 32.5 49.5zM1196 309q301 63 549 125q-262 227 -430 469l-58 -192q-33 -113 -45 -195q-6 -70 -16 -207zM1235 207q111 -6 471 -76q201 -41 604 -102q-250 151 -461 321q-268 -70 -614 -143z" />
<glyph unicode="B" horiz-adv-x="3817" d="M-729 924q0 41 67 65q51 12 103 25q735 205 1005 274q565 147 1014 234q-29 150 -28 155q0 12 14 33t33 21q53 0 88 -189q510 92 823 92q162 0 283 -28q197 -47 196 -160q0 -141 -452 -399q424 69 734 69h9q221 0 383 -35q274 -55 274 -194q0 -217 -602 -553 q-389 -217 -815 -381q-381 -150 -737 -238q-457 -114 -791 -114q-39 0 -64.5 18.5t-25.5 44.5q0 27 27 47q47 39 369.5 148.5t382.5 109.5q51 0 51 -57q0 -39 -62 -59q-45 -12 -92 -25q-70 -20 -141 -41q-111 -35 -107 -51q600 82 1370 442q256 119 584 311q481 281 481 381 q0 115 -350 115q-297 0 -794 -80q-530 -86 -766 -184q51 -233 90 -389q23 43 55 43q41 0 68 -72q18 -55 18 -108q0 -66 -20 -119q-27 -66 -70 -66q-31 0 -66 33q-49 45 -178 637q-516 -205 -663 -205q-90 0 -90 66q0 29 26 59q84 88 688 258q-53 254 -112 557 q-373 -111 -1004 -260q-758 -180 -1005 -246q-33 -12 -64 -22q-51 -16 -82 -17q-55 0 -55 54zM1589 1434q55 -291 111 -547q778 209 997 475q27 33 27 59q0 92 -326 92q-367 0 -809 -79z" />
<glyph unicode="C" horiz-adv-x="2793" d="M18 160q0 188 285 450q391 360 1022 662q688 330 1157 330q276 0 449 -107q207 -129 207 -387q0 -117 -54 -254q-66 -174 -162 -174q-135 0 -135 219q0 94 62 94q59 0 59 -104q0 -68 14 -90q41 47 68 149q27 92 27 162q0 205 -176 299q-135 72 -361 72q-449 0 -1112 -320 q-608 -295 -983 -639q-246 -227 -246 -356q0 -279 563 -385q309 -57 773 -57q541 0 1114 65q627 72 1099 203q85 24 122 24h3q80 0 80 -69q0 -61 -114 -107q-94 -37 -168 -37q-33 0 -50 33q-997 -233 -2093 -233q-524 0 -860 75q-590 133 -590 482z" />
<glyph unicode="D" horiz-adv-x="3129" d="M-2929 1851q0 61 80 103q66 33 131 33q27 0 45.5 -19.5t18.5 -44.5q0 -16 -8 -29q610 37 1247 37q1460 0 2576 -182q1929 -317 1929 -1092q0 -471 -743 -782q-578 -242 -1532 -362q-693 -88 -1264 -88q-215 0 -215 96q0 88 179 135q125 33 252 33q147 0 147 -66 q0 -25 -29 -59q991 45 1778 227q1296 301 1296 866q0 199 -174 363q-481 449 -1997 649q-1010 133 -2201 133q-608 0 -1307 -43q-22 -1 -41 -1q-168 0 -168 93zM559 1167q0 27 19.5 46.5t46.5 19.5t46 -19.5t19 -46.5q0 -283 55 -610q61 -379 166 -582q10 -18 11 -38 q0 -64 -66 -64q-127 0 -223 578q-74 453 -74 716z" />
<glyph unicode="E" horiz-adv-x="1705" d="M-416 -414q0 31 13 64q72 205 823 543q506 215 1014 430q-160 -6 -641 -78q-162 -25 -324 -49q-190 -25 -326 -25q-113 0 -129 4q-49 14 -55 88q-4 98 438 330q125 66 525 250q920 426 1093 426q61 0 62 -62q0 -61 -62 -61q-150 0 -936 -367q-745 -348 -946 -485h19 q127 0 303 24q160 25 319 50q172 27 346 51q201 29 346 29q66 0 123 -21q72 -25 72 -68q0 -29 -39 -65q-57 -53 -295 -156q-158 -66 -315 -131q-502 -207 -729 -315q-573 -272 -574 -395q0 -76 207 -76q223 0 627 90q104 23 626 158q535 137 596 151q379 86 602 86 q133 0 328 -29q223 -33 301 -73q31 -18 63.5 -55t32.5 -68q0 -62 -61 -62q-25 0 -49 29q-35 39 -41 45q-49 33 -275 62q-190 28 -294 28h-7q-209 0 -583 -86q-57 -14 -582 -147q-532 -137 -635 -160q-406 -90 -639 -90q-123 0 -217 37q-125 51 -125 149z" />
<glyph unicode="F" horiz-adv-x="1509" d="M-1208 1460q0 -61 59 -61q74 0 215 26q106 23 213 45q2468 430 3123 431q47 0 84 -3q-57 -23 -57 -57q0 -27 18.5 -45t42.5 -18q14 0 25 4q59 27 143 28q74 2 92 43q6 12 7 27q0 31 -35 70q-56 67 -334 67h-8q-670 0 -3121 -428l-52 -10q1 9 1 17q0 53 -58 53 q-123 0 -332 -140q-27 -18 -26 -49zM741 911q0 -59 60 -59q35 0 186 47q102 -686 158 -866q14 -43 55 -43q63 0 64 59q0 8 -4 19q-55 178 -156 870q367 115 557 115q84 0 141 -21q12 -4 23 -4q57 0 57 64q0 41 -39 55q-76 27 -182 27q-207 0 -574 -115q-57 408 -57 457 q0 59 -61 59q-59 0 -60 -59q0 -66 62 -494q-76 -25 -170 -49q-59 -2 -60 -62z" />
<glyph unicode="G" horiz-adv-x="3080" d="M-301 360q0 -236 291 -323q145 -45 368 -45q748 0 2042 426q125 -236 174 -467q11 -50 55 -50q9 0 21 3q47 10 47 59q0 68 -67 250q-57 150 -107 246q688 236 785 329q34 34 34 74q0 20 -6 37q-31 70 -207 96q-184 29 -639 29q-133 0 -469 -4q-98 49 -170 49 q-88 0 -141 -55q-20 -20 -20 -43q0 -13 6 -27q18 -45 129 -51h-4q0 2 155 2q186 -96 359 -369q-1259 -411 -1963 -411h-3q-207 0 -342 41q-203 61 -203 204q0 147 248 361q311 268 899 555q498 242 1026 422q492 168 659 168q23 0 37 -6l76 -25q49 -14 113 -43 q16 -16 43 -16q61 0 61 61q0 25 -18 43q-29 31 -162 74l-70 22q-27 10 -70 11q-217 0 -743 -183q-532 -184 -1051 -440q-581 -289 -882 -549q-291 -250 -291 -455zM2195 897q150 2 278 2q588 0 716 -45q-168 -96 -725 -285q-117 195 -269 328z" />
<glyph unicode="H" horiz-adv-x="2019" d="M-272 403q0 59 59 60q106 0 901 76q0 1065 -74 1138q-18 18 -18 41q0 25 19.5 43.5t41.5 18.5q25 0 43 -19q68 -68 91 -381q18 -242 18 -829q432 43 721 80q-119 717 -197 794q-18 18 -18 41t18.5 42.5t42.5 19.5q25 0 41 -19q106 -106 232 -864q285 37 346 60q12 4 22 4 q57 0 58 -62q0 -39 -39 -53q-70 -27 -369 -68q33 -219 64 -452q1 -7 1 -14q0 -54 -61 -54q-53 0 -59 53q-31 236 -64 453q-301 -37 -739 -80l-2 -481q0 -59 -59 -60q-59 0 -60 60v469q-797 -78 -901 -78q-59 0 -59 61z" />
<glyph unicode="I" horiz-adv-x="399" d="M-41 1677q0 -25 18 -43q78 -78 125 -602q43 -473 43 -1083q0 -59 62 -60q59 0 59 60q0 528 -30 952q-51 696 -175 817q-18 18 -43 19q-59 -1 -59 -60z" />
<glyph unicode="J" horiz-adv-x="2177" d="M-399 225q33 -229 323 -356q278 -121 729 -121h43q537 6 953 152q451 160 481 401q2 13 2 27q0 179 -285 424q-209 180 -690 477q-111 70 -248 164q-92 92 -149.5 193.5t-57.5 168.5q0 55 -55 55q-53 0 -53 -55q0 -100 78 -233q66 -109 162 -205q35 -37 266 -180 q391 -244 588 -396q334 -262 334 -412q0 -8 -1 -16q-23 -174 -425 -313t-902 -143h-34q-361 0 -611 82q-311 100 -340 301q8 66 41 114q76 121 252 144q48 7 48 51q0 5 -1 10q-7 48 -51 48q-5 0 -10 -1q-207 -29 -312 -168q-77 -102 -77 -186q0 -14 2 -27z" />
<glyph unicode="K" horiz-adv-x="1009" d="M14 442q0 41 47 64q90 37 267 115q-10 166 -41 495q-33 356 -33 443q0 123 63 131q6 1 11 1q41 0 49 -59q0 1 0 -151q0 -158 24 -406q33 -356 37 -403q621 299 688 495q14 45 54 45q57 0 57 -55q0 -133 -328 -348q-209 -135 -463 -256q6 -111 7 -201q141 -53 221 -100 q184 -109 450 -307q53 -37 152 -115q23 -18 22 -43q0 -55 -57 -55q-16 0 -33 10q-182 135 -364 268q-217 156 -393 223q-8 -247 -77 -247h-1q-59 0 -60 53q0 8 4 18q20 78 23 217q-94 31 -186 62q-139 57 -140 106zM197 442q27 -10 141 -49q0 50 -4 109q-68 -31 -137 -60z " />
<glyph unicode="L" horiz-adv-x="669" d="M-12 12q0 -258 422 -258q211 0 627.5 58.5t627.5 58.5q131 0 231 -16q7 -1 13 -1q41 0 51 46q1 7 1 13q0 43 -48 50q-109 16 -248 17q-215 0 -694 -62q-401 -53 -561 -53q-311 0 -312 149q0 100 135 301q82 121 297 387q285 354 394 525q172 275 172 464v17q-1 53 -52 53 h-4q-53 -2 -53 -53v-11q0 -165 -172 -433q-104 -162 -371 -492q-236 -293 -319 -422q-137 -209 -137 -338z" />
<glyph unicode="M" horiz-adv-x="1492" d="M25 35q0 109 30 270q45 244 49 268q18 139 19 328q0 -6 -10 76q-16 115 -17 197q0 112 69 112h1q55 0 72 -82q8 -31 8 -123q10 4 22 4q61 0 62 -61q0 -14 -29 -121q-31 -127 -33 -131q41 -199 109 -354q104 -246 225 -246q55 0 119 78q195 244 309 948q27 162 27 182 q0 35 -7.5 107t-7.5 106q0 174 74 174q82 0 82 -155q0 -37 -8 -107.5t-8 -105.5q0 -14 18 -154q33 -270 57 -403q39 -227 99 -396q137 -381 137 -673q0 -61 -61 -62q-61 0 -62 62q0 272 -129 633q-53 147 -127 575q-195 -932 -510 -932q-238 0 -385 443q-41 -492 -76 -529 q-23 -23 -49 -22q-70 0 -69 94z" />
<glyph unicode="N" horiz-adv-x="2203" d="M31 1747q0 -53 47 -162q2 -61 2 -129q0 -190 -27 -950q-12 -428 -12 -461q-2 -51 53 -53h4q51 0 54 55l38 1323q70 -119 127 -207q262 -391 572 -694q498 -488 893 -488q32 0 63 3q154 14 238 245q76 217 76 553q0 301 -62 555q-68 276 -182 392q-16 16 -39 16t-39 -16 q-20 -20 -19.5 -39.5t19.5 -38.5q94 -96 154 -353q57 -244 57 -522q0 -311 -70 -508q-59 -166 -145 -176q-25 -2 -49 -2q-360 0 -844 483q-246 246 -471 566q-186 266 -281 467q-8 170 -38 202q-18 18 -46 19q-73 0 -73 -80z" />
<glyph unicode="O" horiz-adv-x="3170" d="M20 483q0 147 117 322q193 287 631 596q487 342 801 342q184 0 352 -96q29 -18 29 -50q0 -53 -54 -53q-14 0 -94 35q-86 37 -112 43q-66 16 -129 16q-154 0 -357 -106q-274 -141 -534 -342q-301 -233 -443 -445q-98 -147 -98 -262q0 -31 8 -59q70 -266 398 -383 q238 -84 577 -84q469 0 961 154q348 109 612 274q381 240 381 498q0 422 -473 678q-393 213 -854 213q-129 0 -283 -41q-96 -25 -227 -76q-106 -39 -121 -39q-55 0 -55 53q0 27 24 45q115 84 318 127q168 37 344 37q313 0 626 -104q354 -119 564 -328q245 -243 245 -562 q0 -306 -389 -569q-274 -184 -659 -305q-516 -164 -1008 -164q-381 0 -647 103q-358 139 -440 444q-10 43 -11 88z" />
<glyph unicode="P" horiz-adv-x="1542" d="M-1366 1556q0 -45 50 -68.5t136 -23.5q88 0 125 27q23 14 23 39q0 53 -53 55q424 61 1255 62q1550 0 2208 -224q74 -25 159 -71q137 -74 138 -125q0 -96 -463 -176q-172 -29 -572 -74q-217 -25 -331 -39q0 150 8 178q2 8 2 19q0 59 -53 59q-14 0 -27 -8q-41 -29 -41 -266 q-219 -37 -233 -113q-2 -14 -2 -27q0 -86 84 -86q55 0 155 58q8 -240 39 -553q29 -268 43 -342q8 -43 51 -43q27 0 44.5 18t11.5 47q-61 295 -80 948q117 16 342 43q518 57 735 105q303 66 371 170q27 39 26 80q0 98 -147 194q-100 66 -225 107q-340 117 -1010 176 q-582 53 -1266 53q-553 0 -962 -35q-416 -33 -496 -88q-45 -33 -45 -76z" />
<glyph unicode="Q" horiz-adv-x="2967" d="M-43 229q0 -76 25 -141q66 -184 321 -278q227 -82 574 -82q336 0 691 74.5t656 209.5q129 -137 193 -137q55 0 55 57q0 25 -57 68q-84 61 -86 63q630 324 630 773q0 369 -311 538q-229 123 -618 123q-322 0 -680 -80q-307 -70 -408 -135q-162 -106 -162 -270q0 -16 2 -68 l4 -72q4 -55 53 -55h7q51 2 51 48v7l-4 82q-2 45 -2 60q0 102 113 176q88 57 378 121q344 78 648 78q358 0 567 -113q252 -137 252 -440q0 -389 -598 -686q-123 154 -129 207q-6 51 -56 51h-4q-51 -4 -51 -54q0 -80 135 -252q-332 -145 -721 -215q-287 -51 -544 -51 q-319 0 -532.5 76t-262.5 213q-18 47 -18 102q0 195 196 473q262 375 709 713q418 313 598 313q55 0 55 56q0 55 -55 55q-227 0 -681 -348t-718 -725q-215 -307 -215 -535z" />
<glyph unicode="R" horiz-adv-x="741" d="M-3029 1616q4 -33 33 -51q53 -33 188 -43h7q52 0 55 57q0 20 -15 37q518 39 1344 39q1090 0 1792 -88q907 -115 975 -359q1 -5 1 -11q0 -142 -966 -458l-180 -59q-8 203 -21 553l-10 256q0 23 -17.5 42t-39.5 17q-57 -2 -56 -53l9 -266q8 -186 22 -586 q-168 -61 -233 -100q-72 -43 -72 -92q0 -94 315 -230q1 -74 1 -134q0 -119 -5 -179v-7q0 -50 54 -55h7q50 0 54 54q4 62 4 185v89q330 -129 723 -223q416 -98 655 -98q41 0 76 2q51 6 51 56v7q-6 51 -56 51h-7q-37 -4 -80 -4q-248 0 -674 111q-371 96 -690 223 q-2 115 -6 262q80 29 211 72q539 176 751 278q293 143 293 285q0 154 -233 274q-588 297 -2628 297q-559 0 -1067 -24q-446 -20 -493 -39q-73 -28 -73 -78q0 -5 1 -10zM-78 444q41 29 174 78l4 -176q-137 61 -178 98z" />
<glyph unicode="S" horiz-adv-x="3082" d="M12 971q0 -82 56 -150q145 -184 663 -262q334 -51 760 -51q631 0 1053 -99.5t422 -246.5q0 -106 -143.5 -225t-405.5 -228q-287 -119 -611 -186q-299 -63 -526 -64q-184 0 -256 43q104 80 595.5 216.5t674.5 136.5q29 0 43 -5q11 -3 20 -3q30 0 41 34q3 10 3 19 q0 29 -36 41q-18 8 -59 8q-238 0 -770 -152q-553 -158 -618 -262q-12 -21 -12 -40q0 -26 22 -50q86 -86 350 -86q246 0 570.5 72.5t605.5 189.5q608 252 608 541q0 225 -500 344q-422 98 -1071 98q-412 0 -786 60q-596 94 -596 302q0 17 4 35q18 82 245 220q238 143 547 254 q352 125 656 151q68 4 133 4q492 0 626 -323q6 -14 7 -33q0 -45 -38 -104.5t-98 -106.5q-51 -41 -73 -41q-47 -2 -47 -49t47 -47q53 0 126.5 57t120.5 129q57 86 58 162q0 37 -15 69q-158 383 -712 383q-195 0 -576 -98q-414 -111 -708 -256q-355 -178 -394 -348 q-6 -27 -6 -53z" />
<glyph unicode="T" horiz-adv-x="915" d="M-688 1174q0 37 37 49q346 127 1169 374q4 59 10 78q13 36 48 36q6 0 14 -1q43 -7 43 -56q0 -11 -2 -24q809 242 993 242q162 0 162 -62q0 -63 -154 -140t-299 -77q-55 0 -55 39q0 29 29 72q-256 -63 -682 -191v-127q0 -571 39 -933q29 -248 63 -330q72 -59 72 -150 q0 -53 -23.5 -92t-54.5 -39q-37 0 -66 60q-76 158 -114 721q-28 387 -28 733q0 63 1 125q-795 -240 -1128 -361q-10 -4 -21 -4q-53 0 -53 58z" />
<glyph unicode="U" horiz-adv-x="1712" d="M47 520q0 -84 8 -160q45 -385 303 -546q63 -39 166 -39q162 0 361 94q219 102 422 291q154 -369 358 -434q57 -18 96 -19q66 0 92 45q12 23 13 47q0 31 -18.5 66t-47.5 35q-53 0 -53 -60q0 -10 2 -18q-197 14 -358 432q68 70 196 225q268 377 268 867q0 229 -59 440 q-53 188 -133 297q-86 121 -180 121q-21 0 -39 -6q-203 -63 -291 -369q-61 -215 -61 -516v-2q0 -545 172 -1037q-197 -190 -410 -297q-188 -94 -330 -94q-68 0 -108 25q-190 121 -242 401q-16 94 -16 205q0 270 92 600q74 266 123 330q12 16 12 35q0 23 -17.5 40t-37.5 17 t-37 -16q-55 -55 -141 -349q-104 -350 -105 -651zM1202 1311v2q0 223 51 444q80 338 240 338q98 0 184 -338q70 -272 70 -409q0 -453 -250 -803q-20 -31 -149 -174q-146 448 -146 940z" />
<glyph unicode="V" horiz-adv-x="1042" d="M6 1516q-1 -5 -1 -10q0 -38 44 -44q129 -16 430 -1097q98 -352 133 -447q39 -104 82 -115q8 -2 16 -2q22 0 40 17q57 59 206 735q104 473 207 1022q2 0 4 -2h4q45 0 48 47l4 136v-1q-4 100 -56 105h-5q-47 0 -62 -101q-59 -358 -189 -958q-139 -662 -206 -854 q-35 94 -134 442q-164 596 -258 830q-131 326 -254 340q-5 1 -10 1q-38 0 -43 -44z" />
<glyph unicode="W" horiz-adv-x="2295" d="M6 1255q0 -18 10 -34q31 -51 144 -715q63 -369 90 -498q31 -150 55 -192q18 -31 60 -31q135 0 208 649q343 -454 900 -454h2q39 0 79 2q520 33 625 366q23 72 23 152q0 254 -212 565t-597 616q-43 35 -80 35q-23 0 -41 -14q-35 -23 -35 -68q0 -23 8 -45q16 -53 74 -112 q63 -68 119 -68q29 0 51 21q279 -252 434.5 -495t155.5 -433q0 -219 -205 -322q-156 -78 -399 -78q-446 0 -748 334q-139 158 -139 217q0 236 -78 312q-34 34 -70 34h-2q-76 0 -76 -96q0 -109 101 -299q-14 -281 -90 -575q-31 147 -92 499q-74 436 -107 582q-35 162 -65 193 q-16 16 -39 16q-25 0 -44.5 -18.5t-19.5 -45.5z" />
<glyph unicode="X" horiz-adv-x="1161" d="M-371 -784q0 102 295 587q182 285 365 572q43 70 106 194q-295 260 -538 457q-31 25 -31 59q0 49 55 50q61 0 570 -453q100 209 282 637q43 102 84 205q74 166 103 190q14 10 30 10q57 0 58 -57q0 -20 -13 -43q-39 -59 -84 -170q-37 -90 -73 -180q-96 -225 -299 -672 q706 -638 706 -723q0 -57 -55 -57q-31 0 -51 26q-123 156 -314 334q-74 72 -342 310q-57 -113 -243 -408q-113 -178 -228 -358q-129 -207 -211 -367q47 -8 47 -57q0 -186 -108 -187q-41 0 -76 31t-35 70z" />
<glyph unicode="Y" horiz-adv-x="1228" d="M25 694q0 223 73 224q57 0 58 -123q0 -43 -8.5 -117t-8.5 -84q0 -412 189 -412q193 0 454 303q-235 296 -235 584q0 160 71 309q86 186 226 187q156 0 237 -213q61 -160 62 -348q0 -229 -213 -517q129 -143 317 -284q344 -256 479 -381q303 -285 304 -486 q0 -213 -299 -346q-244 -110 -488 -110q-313 0 -596 141q-344 172 -344 453q0 156 156 336q80 92 207 186q154 117 237 117q55 0 55 -58q0 -57 -54 -57t-189 -109q-111 -88 -170 -155q-129 -143 -129 -260q0 -225 317 -367q254 -113 514 -113q184 0 402 84q266 104 266 256 q0 160 -295 428q-129 119 -438 349q-190 141 -326 286q-292 -329 -523 -329h-1q-201 0 -269 231q-38 128 -38 382v13zM662 1071q0 -240 192 -496q176 248 176 429q0 129 -39 264q-53 182 -149 182q-78 0 -135 -154q-45 -127 -45 -225z" />
<glyph unicode="Z" horiz-adv-x="1267" d="M-850 -797q0 158 373 449q152 117 524 360q76 51 674 430q410 260 665 443q422 301 422 389q0 72 -215 72q-254 0 -821 -175q-584 -178 -805 -333q-23 -16 -45 -17q-59 0 -59 62q0 25 18 43q33 33 242 125q348 154 727 270q477 145 749 145q168 0 238 -32q93 -44 93 -158 q0 -9 -1 -19q-10 -160 -698 -634l-1274 -840q-684 -455 -684 -567q0 -47 104 -47q143 0 476 104q207 68 813 309q653 260 952 365q510 176 731 176q70 0 125 -19q80 -25 80 -77q0 -57 -55 -58q-27 0 -80.5 16.5t-67.5 16.5q-211 0 -749 -192q-170 -61 -736 -287 q-580 -231 -735 -287q-524 -186 -747 -186q-90 0 -154 35q-80 41 -80 118z" />
<glyph unicode="[" horiz-adv-x="952" d="M0 90q0 61 123 98q72 317 72 881q0 274 -33 363q6 78 67 106q8 4 136 35q145 33 215 65q12 6 24 7q49 0 49 -52q0 -29 -26 -45q-59 -35 -178 -61q-137 -29 -183 -49q27 -123 27 -400q0 -504 -64 -831q121 12 228 -4q160 -23 227 -92q18 -18 64 -19q18 0 55 4t47 4 q59 0 59 -45q0 -63 -164 -63q-74 0 -106 26q-57 47 -72 54q-84 39 -225 39q-78 0 -141 -13q-29 -80 -80 -80q-121 0 -121 72z" />
<glyph unicode="\" horiz-adv-x="888" d="M-12 1602q0 49 49 49q23 0 37 -19q115 -137 264 -461q55 -123 211 -501q225 -547 276 -580q27 -16 27 -43q0 -49 -45 -49q-72 0 -207 295q-2 6 -141 340q-150 367 -205 489q-147 319 -256 449q-10 14 -10 31z" />
<glyph unicode="]" horiz-adv-x="667" d="M0 1591q0 47 47 47q31 0 41 -24q12 -33 16 -37q63 -53 226 -53q96 0 194 24q12 2 25 2q51 0 51 -39q0 -23 -22 -43q4 -342 10 -684q10 -397 47 -684q10 -78 -62 -77q-31 0 -97 20t-109 20q-94 0 -179 -65q-12 -10 -28 -10q-47 0 -47 49q0 23 18 37q109 82 234 82 q70 0 174 -33q-41 358 -56 1327q-86 -8 -161 -8q-203 0 -279 63q-43 37 -43 86z" />
<glyph unicode="^" horiz-adv-x="788" d="M-2 1108q0 66 108 223q88 129 154 197q20 18 53 2q14 43 27 86q16 53 45 57q33 4 55 -35q4 -8 29 -69q123 -330 287 -465q16 -12 16 -33q0 -45 -45 -45q-15 0 -27 10q-176 145 -303 477q-70 -145 -176 -294q-123 -166 -176 -164q-16 2 -31.5 18.5t-15.5 34.5z" />
<glyph unicode="_" horiz-adv-x="1331" d="M6 45q0 68 94 68q49 0 287 77q94 31 647 31q80 0 215 -45q47 -16 47 -65q0 -29 -19.5 -49.5t-47.5 -20.5q-23 0 -91.5 21.5t-105.5 21.5q-532 0 -606 -25q-256 -84 -328 -84q-92 0 -92 70z" />
<glyph unicode="`" horiz-adv-x="653" d="M49 1530q0 37 44 66.5t106 29.5q119 0 221 -113.5t102 -232.5q0 -100 -43 -100q-109 0 -108 98q0 10 2 31v32q0 105 -123 105q-201 0 -201 84z" />
<glyph unicode="a" horiz-adv-x="1071" d="M76 242q0 270 758 284q-201 39 -684 39q-47 0 -48 47q0 41 48 47q25 4 260 5q188 0 344 -25q266 -43 266 -141q0 -61 -213 -70q-352 -16 -399 -25q-222 -36 -240 -161q27 -25 119 -25q137 0 311 36t303 89q10 4 21 4q45 0 45 -45q0 -68 -299 -127q-248 -51 -373 -51 q-219 0 -219 119z" />
<glyph unicode="b" horiz-adv-x="817" d="M-258 1669q0 49 47 49q18 0 33 -14q51 -43 340 -1346q176 8 264 9q164 0 207 -9q113 -23 151 -114q0 -86 -118 -148q-74 -37 -222 -71q-120 -29 -120 -37q0 -180 -74 -181q-49 0 -82 95q-4 10 -33 137l-270 1167q-25 111 -51 221q-35 147 -66 215q-6 14 -6 27zM182 262 l39 -166q18 -3 40 -3q82 0 214 36q182 49 211 111q-34 28 -251 28h-15q-97 0 -238 -6z" />
<glyph unicode="c" horiz-adv-x="1165" d="M31 215q0 106 108 197q82 68 240 135q121 47 244 94q61 27 98 27q45 0 45 -39q0 -35 -166 -111q-264 -119 -305 -141q-151 -83 -151 -150q0 -4 1 -8q14 -82 359 -82h106q61 2 76 2q66 0 197 3t196 3q49 0 49 -49q0 -39 -51 -51q-61 -14 -327 -14q-690 0 -715 145 q-4 18 -4 39z" />
<glyph unicode="d" horiz-adv-x="966" d="M49 188q0 106 227 185q160 55 324 71q-51 281 -176 1151q-20 156 -47 250q-2 8 -2 19q0 55 49 55q18 0 35 -14q25 -20 102 -557q88 -594 144 -904q241 -16 241 -154q0 -32 -16 -58.5t-47 -26.5q-49 0 -49 51q0 18 10 33q2 41 -119 49q29 -143 53 -232q23 -14 39.5 -54 t16.5 -77q0 -65 -50 -65h-2q-70 0 -125 254q-53 -39 -192 -68q-121 -26 -203 -26h-6q-207 0 -207 118zM137 180q10 -43 90 -43q92 0 265 56q163 51 157 53l-20 98q-104 -6 -281 -51q-212 -54 -212 -107q0 -3 1 -6z" />
<glyph unicode="e" horiz-adv-x="610" d="M39 360q0 104 94 201.5t191 97.5q70 0 110.5 -54t40.5 -126q0 -180 -295 -198q76 -51 326 -52q45 0 45 -47t-45 -47q-195 0 -262 17q-150 33 -195 151q-10 27 -10 57zM133 365q74 12 148 26q100 23 100 88q0 86 -57 86q-61 0 -123 -68.5t-68 -131.5z" />
<glyph unicode="f" horiz-adv-x="581" d="M-221 1845q0 444 366 445q487 0 742 -377q219 -326 219 -844q0 -94 -45 -149q-37 -47 -86 -48q-53 1 -53 52q0 31 39.5 50t39.5 99q0 471 -190 766q-225 344 -666 344q-266 0 -266 -330q0 -135 47 -317l340 -1346q86 6 119 7q180 0 180 -72q0 -51 -53 -51q8 0 -42 10 q-28 6 -79 6q-42 0 -98 -4q27 -111 55 -223q33 -135 33 -228q0 -116 -73 -116h-1q-57 0 -71 96q-6 33 -7 135q0 156 -43 330l-59 -8q-49 -6 -82 -6q-100 0 -100 57q0 80 82 80q27 0 77 -10q45 -10 56 -11q-59 233 -336 1331q-45 178 -45 332z" />
<glyph unicode="g" horiz-adv-x="561" d="M-1063 -444q0 -51 31 -99q98 -160 483 -264q360 -98 762 -98q100 0 193 8q598 47 722 344q10 25 11 51q0 102 -160 211q-131 90 -317 154q-145 49 -209 49q-13 0 -23 -2q-29 102 -29 223q0 90 17 178q33 39 33 88q0 72 -45 72t-72 -109q-20 -14 -64 -14q-49 0 -97 18.5 t-54 43.5q0 41 69.5 99t100.5 58h6q70 0 119 -49q14 -14 32 -14q47 0 48 47q0 18 -15 33q-78 78 -190 78q-68 0 -162 -80q-102 -88 -102 -172q0 -74 84 -117q70 -35 159 -35q27 0 47 4q-8 -70 -8 -135q0 -147 43 -272q-311 49 -596 49q-160 0 -289 -17q-389 -49 -501 -239 q-27 -45 -27 -92zM-909 -434q0 68 112 127q84 45 170 63q195 43 455 43q291 0 567 -49q47 -86 82 -86q14 0 29 10q25 20 12 54q152 -33 178 -52q14 -8 31 -8q45 0 47 45q76 -31 144 -78q106 -72 106 -129q0 -12 -6 -24q-94 -225 -625 -266q-92 -8 -188 -9q-360 0 -678 89.5 t-414 209.5q-23 31 -22 60z" />
<glyph unicode="h" horiz-adv-x="759" d="M31 1704q0 117 41 117q16 0 29.5 -17.5t13.5 -36.5q0 -770 6 -1058q4 -174 26 -529q123 182 138 199q106 137 176 137q74 0 112 -76q39 -84 76 -168q61 -111 174 -168q33 -16 33 -47q0 -53 -51 -53q-11 0 -23 4q-162 68 -233 225q-18 47 -37 95q-27 66 -51 82 q-43 -25 -152 -205q-96 -158 -157 -158q-82 0 -103 203q-4 133 -6 266q-12 369 -12 1188z" />
<glyph unicode="i" horiz-adv-x="354" d="M16 963q0 55 56 55q39 0 82 -42t43 -81q0 -45 -45 -45q-8 0 -21.5 2t-28.5 2q-27 0 -56.5 41t-29.5 68zM51 451q0 51 49 51q51 0 62 -113q2 -16 2 -147q55 -18 55 -129q1 -95 -67 -95q-86 45 -86 287q0 25 -7.5 74t-7.5 72z" />
<glyph unicode="j" horiz-adv-x="438" d="M-797 -1225q0 268 303 396q219 92 527 92q90 0 100 -2q61 -10 62 -60q0 -57 -95 -57q-18 0 -47.5 2t-38.5 2q-250 0 -432 -66q-266 -96 -266 -305q0 -131 199 -260q137 -90 315 -149q274 -92 508 -92q469 0 469 393q0 270 -199 710q-92 205 -368 713q-199 365 -199 449 q0 67 51 67h2q41 0 58 -51q78 -238 290 -616q254 -451 324 -613q154 -354 154 -661q0 -504 -578 -504q-258 0 -549 96q-217 74 -375 187q-215 155 -215 329zM-197 1161q0 63 80 64q63 0 101 -33q31 -29 30 -66q0 -53 -47 -53q-12 0 -24 6q-16 -39 -45 -39q-33 0 -64 40 t-31 81z" />
<glyph unicode="k" horiz-adv-x="552" d="M-209 1903q0 49 47 49q41 0 49 -47q18 -119 76 -408q72 -356 201 -1071q201 104 217 104q47 0 47 -47q0 -35 -104 -88q-74 -37 -146 -71l6 -37q20 -6 66 -17q72 -12 141 -26q104 -23 116.5 -36t12.5 -28q0 -18 -17.5 -33.5t-37.5 -15.5q-61 0 -268 49q12 -90 12 -147 q0 -133 -59 -133q-41 0 -52 34q-4 16 -4 66q0 14 4 113q1 23 1 43q0 40 -3 69q-41 31 -41 76q0 29 21 57q-51 336 -207 1121q-23 106 -47 213q-31 139 -31 211z" />
<glyph unicode="l" horiz-adv-x="391" d="M98 289q0 219 4 657t4 658q0 102 52 102q41 0 49 -96v1q-2 0 -2 -128q0 -193 -4 -577.5t-4 -577.5q0 -242 8 -299q22 -15 22 -51q0 -38 -17 -66.5t-42 -28.5q-45 0 -62 176q-8 88 -8 230z" />
<glyph unicode="m" horiz-adv-x="1179" d="M37 104v471q0 53 53 54q53 0 53 -54v-309q174 274 316 275q125 0 180 -146l66 -250q70 229 167 230q45 0 97 -74q78 -113 100 -135q76 -72 180 -72q53 0 54 -55q-1 -55 -54 -55q-135 0 -225 79q-27 25 -154 187q-14 -16 -67 -152q-39 -94 -90 -94q-70 0 -109 111 q-29 102 -55 204q-35 113 -90 113q-66 0 -144 -104q-16 -20 -122 -191q-63 -102 -95 -102q-27 0 -44 21.5t-17 47.5z" />
<glyph unicode="n" horiz-adv-x="1007" d="M27 508q0 57 55 57q74 0 129 -297q115 279 281 279q80 0 186 -131q147 -180 168 -199q92 -74 250 -94q53 -8 53 -57q-1 -58 -62 -58q-160 0 -296 111q-78 61 -187 205q-83 108 -114 108h-1q-139 0 -237 -420q-23 -94 -76 -94t-53 100q0 92 -23 232q-27 160 -61 219 q-12 18 -12 39z" />
<glyph unicode="o" horiz-adv-x="827" d="M25 381q0 109 114.5 226.5t222.5 117.5q88 0 228 -111q147 -117 147 -206q0 -111 -117.5 -217.5t-230.5 -106.5q-111 0 -233 92q-131 96 -131 205zM123 381q0 -61 100 -131q94 -66 166 -66q74 0 160 76t86 146q0 59 -102.5 131.5t-163.5 72.5q-86 0 -170 -94 q-74 -82 -76 -135z" />
<glyph unicode="p" horiz-adv-x="823" d="M-145 623q0 -55 53 -56q121 0 405 -55q309 -61 365 -113q-27 -25 -156 -47q-98 -14 -194 -26l-144 -23v23q0 55 -55 55q-53 0 -53 -55q0 -106 92 -605q106 -582 192 -667q20 -20 39 -20t37 20q20 18 20 37t-20 39q-51 51 -133 450q-63 317 -104 617l141 20q252 37 311 55 q144 41 144 127q0 131 -441 217q-307 59 -446 60q-53 0 -53 -53z" />
<glyph unicode="q" horiz-adv-x="874" d="M-47 381q0 123 168 217q147 84 280 84q90 0 228 -39q172 -47 172 -108q0 -47 -56 -48q-57 0 -171.5 42t-174.5 42q-82 0 -205.5 -60t-123.5 -101q0 -33 96 -33q55 0 166.5 8t165.5 8q108 0 108 -60q0 -30 -39 -71q-86 -84 -131 -262q393 -45 713 -137q438 -127 635 -322 q115 -113 114 -205q0 -147 -270 -229q-207 -63 -430 -63q-385 0 -625 172q-272 195 -272 565q0 57 8 117q-98 2 -282 22q-55 12 -56 55q0 55 60 56q45 0 295 -23q37 160 108 268h-25q-41 0 -105 -4q-85 -6 -128 -6q-223 0 -223 115zM412 -217q0 -324 241 -488 q209 -141 545 -141q186 0 342 31q236 49 236 153q0 63 -93 148q-180 162 -600 278q-311 86 -665 125q-6 -55 -6 -106z" />
<glyph unicode="r" horiz-adv-x="724" d="M37 483q0 45 45 45q43 0 100 -141q131 158 418 219q6 1 11 1q16 0 28 -9q16 -12 16 -35q0 -35 -34 -45q-152 -41 -230 -82q-127 -66 -172 -166q18 -80 19 -123q0 -84 -60 -84q-67 0 -67 118q0 58 12 98q-37 127 -74 172q-12 14 -12 32z" />
<glyph unicode="s" horiz-adv-x="1230" d="M18 412q0 145 295 215q199 47 412 47q125 0 254 -27q192 -39 192 -116q0 -52 -49 -52q-23 0 -39 15q-91 75 -347 75h-7q-215 0 -407 -49q-199 -47 -199 -106q0 -41 121 -64q25 -4 149 -18q242 -27 377 -68q209 -61 328 -184q39 -39 39 -84q0 -96 -150 -186 q-137 -84 -248 -84q-70 0 -127 30q-69 36 -69 99q0 37 23.5 81t56.5 44q47 0 47 -29q0 -10 -8.5 -37t-8.5 -39q0 -47 92 -47q55 0 164 55q119 59 119 111q0 6 -4 12q-129 129 -399 182l-414 66q-193 43 -193 158z" />
<glyph unicode="t" horiz-adv-x="575" d="M-430 549q14 -45 68 -68q2 -2 139 -14q238 -20 520 -21q9 -152 9 -258t-9 -168q-1 -5 -1 -10q0 -42 46 -49q6 -1 11 -1q43 0 48 46q9 66 9 176t-9 264h222l129 3q53 0 51 51q0 53 -51 53h-129q-164 -2 -228 -2q-14 176 -49 536q-45 479 -45 596q0 43 4 58q4 13 4 24 q0 31 -33 45q-14 6 -26 6q-26 0 -39 -28q-14 -31 -14 -113q0 -121 45 -598q35 -352 47 -526q-209 2 -344 6q-254 10 -293 33q-6 4 -41 4q-19 0 -33 -12q-10 -9 -10 -22q0 -5 2 -11z" />
<glyph unicode="u" horiz-adv-x="1173" d="M-20 432q0 76 20 156q29 114 81 114h1q51 0 51 -59q0 -37 -18.5 -106.5t-18.5 -106.5q0 -295 303 -295q154 0 219 80q31 39 60 152q20 79 66 79h1q47 0 60 -59q29 -139 121 -213q47 -37 157 -82q78 -33 78 -69q1 -29 -21 -47q-16 -13 -36 -13q-7 0 -14 2 q-219 52 -342 242q-94 -188 -349 -189q-197 0 -308 109t-111 305z" />
<glyph unicode="v" horiz-adv-x="759" d="M6 528q0 59 37 60q51 0 61 -53q25 -117 107 -267q100 -180 190 -180q37 0 50 45q0 2 6 78q12 135 43 209q43 102 137 162q14 10 29 10q53 0 53 -53q0 -25 -23 -45q-88 -72 -112 -150q-12 -37 -17 -139q-4 -90 -35 -150q-37 -73 -131 -73q-119 0 -229 151 q-78 106 -133 258q-33 86 -33 137z" />
<glyph unicode="w" horiz-adv-x="1236" d="M66 541q0 59 2 73q10 43 49 43t47 -45v-71q0 -270 180 -367q14 70 29 141q27 92 82 93q35 0 198.5 -99.5t286.5 -99.5q119 0 119 51q0 70 -104.5 201t-104.5 145q0 51 49 51q18 0 35 -16q80 -78 143 -176q80 -123 80 -207q0 -149 -217 -149q-117 0 -246 63 q-111 61 -221 125q-14 -70 -29 -139q-29 -84 -96 -84q-33 0 -69 20q-213 115 -213 447z" />
<glyph unicode="x" horiz-adv-x="989" d="M23 610q0 57 55 58q20 0 41 -17q76 -68 432 -264q137 244 166 244q57 0 57 -60q0 -31 -49 -114q-39 -61 -76 -123q152 -80 275 -129q39 -14 39 -53q0 -55 -56 -56q-47 1 -313 140q-139 -240 -193 -240q-55 0 -55 55q0 23 16 41q53 59 134 197q-401 221 -457 282 q-16 18 -16 39z" />
<glyph unicode="y" horiz-adv-x="651" d="M-47 -483q0 145 142.5 274t287.5 129q39 0 64.5 -18.5t25.5 -40.5q0 -49 -90 -49q-100 0 -212 -97.5t-112 -197.5q0 -201 181 -338q166 -129 374 -129q158 0 254 119q90 111 90 272q0 174 -227 461q-176 205 -354 407q-98 -63 -211 -63q-174 0 -174 223q0 111 59 111 q51 0 51 -64q0 -14 -2 -36.5t-2 -33.5q0 -96 84 -96q66 0 137 49q-10 25 -10 50q0 73 76 73h2q78 0 78 -82q0 -27 -10 -53q188 -219 376 -440q233 -297 234 -506q0 -207 -121 -348q-127 -150 -332 -150q-252 0 -448 158q-211 170 -211 416z" />
<glyph unicode="z" horiz-adv-x="550" d="M-276 -678q0 182 290 293q225 88 435 88q51 0 51 -53q0 -51 -51 -51q-160 0 -365 -70q-256 -84 -256 -207q0 -76 154 -182q109 -74 227 -125q238 -102 412 -102q311 0 311 335q0 332 -240 588q-219 233 -553 324q-90 25 -90 69q0 63 182 84q-84 31 -159 31q-51 0 -52 53 q0 51 52 52q86 0 188 -37q131 -49 131 -121q0 -51 -88 -74q268 -96 442 -280q127 -135 209 -318q84 -193 84 -371q0 -438 -409 -438q-229 0 -543 146q-362 168 -362 366z" />
<glyph unicode="{" horiz-adv-x="684" d="M0 287q0 125 82 231q84 86 166 172q98 104 123 211q-49 8 -101 17q-61 14 -61 61q0 39 86 111q61 49 123 98q-94 16 -187 33q-123 31 -122 108q0 127 131 223q121 90 252 90q160 0 159 -53q0 -41 -67 -41q-20 0 -54.5 4t-40.5 4q-104 0 -186 -63t-108 -166 q43 -33 120 -35q94 -2 115 -8q57 -20 78 -100q10 -41 -70 -103q-61 -43 -123 -86q145 -18 146 -86q0 -16 -4 -35q-23 -90 -121 -194l-164 -176q-84 -109 -84 -217q0 -123 51 -164q45 -37 172 -37q43 0 43 -43t-43 -43q-164 0 -233 61q-78 68 -78 226z" />
<glyph unicode="|" horiz-adv-x="186" d="M0 1604q0 35 47 34q39 0 47 -32q35 -135 35 -373q0 -135 -59 -135q-49 0 -50 61q0 18 7.5 56t7.5 51q0 57 -17.5 169.5t-17.5 168.5zM51 862q0 37 45 37q90 0 90 -229q0 -84 -11 -252t-11 -252q0 -20 5 -64.5t5 -66.5q0 -37 -47 -37q-59 0 -59 119q0 94 11 278.5 t11 276.5q0 119 -29 157q-10 16 -10 33z" />
<glyph unicode="}" horiz-adv-x="786" d="M0 1593q0 39 43 43q78 10 152 11q260 0 260 -109q0 -66 -99 -158q-74 -66 -149 -131q51 8 63 8q53 0 54 -45q0 -31 -29 -69q-25 -29 -49 -58q45 -51 194.5 -164.5t210.5 -183.5q98 -111 99 -219q0 -135 -119 -319q-129 -201 -254 -201q-41 0 -41 41q0 27 29 39 q117 45 209 180t92 260q0 92 -134 219q-35 33 -247 201q-131 104 -131 147q0 25 43 68q-94 2 -95 55q0 63 117 164q131 113 150 168q-37 16 -103 21q-43 2 -116 -2q-92 -4 -109 -5q-41 0 -41 39z" />
<glyph unicode="~" horiz-adv-x="905" d="M59 1393q-18 -35 15 -54q29 -14 63 29q57 72 88 94q76 55 185 56q74 0 125 -95q18 -33 28 -49q20 -25 45 -35t58 -10q100 0 159 60q27 27 27 51q0 20 -15.5 35.5t-41.5 15.5q-35 0 -64 -29q-6 -18 -12 -35q-8 -29 -35 -28q-18 0 -45 12q-12 4 -37 49q-72 135 -192 135 q-240 1 -351 -202z" />
<glyph unicode="&#xa1;" horiz-adv-x="417" d="M18 1309q0 -16 15 -29q30 -29 59 2q8 10 27 31q18 -14 55 -15q96 0 119 52q6 14 6 28q0 70 -104 86q-39 6 -84 -32q-10 -10 -64 -70q-29 -33 -29 -53zM115 850q0 -127 141 -660q82 -313 82 -352q0 -47 47 -47t47 47q0 51 -84 377q-137 520 -137 635q0 49 -47 49 q-49 0 -49 -49z" />
<glyph unicode="&#xa2;" horiz-adv-x="978" d="M41 483q0 195 389 351l4 770q0 102 51 102q41 0 50 -96q-2 10 -3 -127q0 -190 -4 -613q37 14 102.5 41t102.5 27q45 0 45 -39t-250 -147q-2 -211 -4 -344h101q59 2 71 2q66 0 198 3t198 3q49 0 49 -49q0 -41 -51 -52q-61 -14 -328 -14q-156 0 -238 2q-2 -205 8 -274 q23 -16 23 -54q0 -35 -17.5 -63.5t-41.5 -28.5q-45 0 -62 176q-8 88 -8 250q-362 29 -381 137q-4 18 -4 37zM158 489q10 -71 268 -81q0 80 2 299q-285 -129 -270 -218z" />
<glyph unicode="&#xa3;" horiz-adv-x="669" d="M-12 8q0 111 104 281q74 121 248 340q-186 -59 -242 -60q-92 0 -92 70q0 41 19 47h55q49 0 287 78q31 10 98 39q70 92 352 528q197 301 279 344q43 23 84 23q66 0 116 -53q37 -39 45 -72q6 -23 7 -43q0 -47 -24 -75t-46 -28q-12 0 -16 9q-37 74 -91 73q-88 0 -243 -213 q-141 -215 -283 -428q35 8 62 9q80 0 215 -46q68 -25 67 -45q0 -29 -19.5 -49t-47.5 -20q-23 0 -91.5 21.5t-105.5 21.5q-29 0 -87 -27.5t-114 -54.5q-229 -285 -293 -375q-133 -193 -133 -289q0 -150 312 -149q160 0 561 53q479 61 694 62q139 0 248 -17q55 -8 47 -63 q-10 -53 -64 -45q-100 16 -231 16q-211 0 -629 -58.5t-626 -58.5q-422 0 -422 254z" />
<glyph unicode="&#xa4;" horiz-adv-x="827" d="M-154 676q0 57 56 57q20 0 39 -16q59 -51 184 -125q119 133 237 133q51 0 138 -49q61 100 82 100q57 0 57 -59q0 -25 -45 -107q143 -115 143 -202q0 -57 -37 -119q25 -10 48 -19q39 -16 38 -53q0 -57 -55 -57q-23 0 -104 37q-119 -113 -238 -113q-47 -1 -104 22 q-70 -88 -101 -88q-33 0 -32 45q0 55 32 93q-160 102 -159 225q0 55 36 121q-168 100 -198 135q-16 16 -17 39zM123 381q0 -68 102 -135q94 -61 164 -62q72 0 159 77t87 145q0 53 -86 120q-137 84 -180 84q-68 0 -156 -80.5t-90 -148.5z" />
<glyph unicode="&#xa5;" horiz-adv-x="868" d="M139 1421q0 49 51 49q80 0 172 -286q27 -84 91 -326q68 268 135 674q12 68 59 67q47 0 47 -106q0 -84 -28 -84q-31 -180 -62 -358q-39 -209 -84 -351q8 -41 15 -88q66 29 102 29q43 0 92 -16q63 -23 64 -56q-1 -45 -48 -45q-18 0 -54 11.5t-54 11.5q-25 0 -94 -31 q4 -49 6 -106q55 20 88 20q23 0 60.5 -12t58.5 -12q33 0 32 -44q0 -49 -47 -49q-23 0 -92 17q-29 8 -96 -19v-147v-242q0 -49 -53 -49q-47 0 -47 49q0 125 -11 348q-111 -37 -155 -37q-59 0 -60 48q0 47 62 47q29 0 149 39l-6 108q-98 -31 -141 -31q-59 0 -60 48q0 47 62 47 q29 0 133 32q-2 47 -20 138q-25 70 -72 215q-33 123 -66 243q-57 195 -88 205q-41 12 -41 49z" />
<glyph unicode="&#xa6;" horiz-adv-x="186" d="M0 1604q0 35 47 34q39 0 47 -32q35 -135 35 -373q0 -135 -59 -135q-49 0 -50 61q0 18 7.5 56t7.5 51q0 57 -17.5 169.5t-17.5 168.5zM51 862q0 37 45 37q90 0 90 -229q0 -84 -11 -252t-11 -252q0 -20 5 -64.5t5 -66.5q0 -37 -47 -37q-59 0 -59 119q0 94 11 278.5 t11 276.5q0 119 -29 157q-10 16 -10 33z" />
<glyph unicode="&#xa7;" horiz-adv-x="1230" d="M25 342q0 57 49 57q35 0 53 -39q59 -119 272 -237q82 -45 234 -105q207 -82 303 -81q72 0 72 40q0 49 -199 191q-313 219 -424 397q-14 33 -49 96.5t-35 92.5t21 67q51 90 243 90q72 0 131 -12q-76 92 -209 199q-113 84 -227 168q-152 127 -151 217q0 29 14 55 q43 76 170 76t323 -74q139 -53 254 -115q94 -53 191 -131q137 -113 137 -184q0 -55 -49 -55q-35 0 -55 37q-59 121 -273 239q-82 45 -233 105q-205 80 -303 80q-72 0 -72 -39q0 -49 201 -191q313 -219 422 -399q16 -31 51 -94.5t35 -94.5q0 -29 -23 -67q-49 -90 -244 -90 q-70 0 -129 12q84 -104 375 -324q98 -74 133 -108q80 -78 80 -146q0 -31 -16 -59q-43 -78 -170 -78t-324 74q-139 53 -252 117q-96 51 -190 131q-137 113 -137 182zM416 748q0 -37 62 -72t177 -35q123 0 152 57q-12 39 -20.5 50.5t-41.5 29.5q-63 33 -184 33 q-145 0 -145 -63z" />
<glyph unicode="&#xa8;" horiz-adv-x="313" d="M16 1565q0 53 80 53q51 0 51 -49q0 -51 -51 -51q-80 0 -80 47zM264 1569q0 -53 55 -53q59 0 60 59q0 12 -23.5 35.5t-38.5 23.5q-20 0 -36.5 -22.5t-16.5 -42.5z" />
<glyph unicode="&#xa9;" horiz-adv-x="1867" d="M16 614q0 156 217 353q160 145 340 239q-6 14 -6 31q0 68 168 109q123 31 228 30q283 0 516 -133q279 -158 278 -418q0 -266 -444 -436q-354 -135 -682 -135q-524 0 -608 307q-6 27 -7 53zM137 592q66 -223 490 -223q264 0 596 112q416 141 415 344q0 182 -192 303 q-160 98 -381 125q39 -25 39 -53q0 -57 -51 -57q-31 0 -98.5 23.5t-88.5 23.5q-88 0 -280.5 -112.5t-325.5 -243.5q-152 -152 -123 -242zM299 678q0 152 190 272q55 35 324 156q53 25 90 24q49 0 49 -45q0 -41 -139 -112q-129 -68 -258 -135q-137 -84 -137 -146 q0 -82 305 -82q82 0 244.5 5.5t244.5 5.5q18 0 36 -16.5t18 -39.5q0 -80 -238 -80h-72q-59 -2 -102 -2q-555 0 -555 195z" />
<glyph unicode="&#xaa;" horiz-adv-x="540" d="M6 1425q0 137 383 144q-102 20 -346 20q-23 0 -23 25q0 20 23 22q12 2 131 2q307 0 307 -84q0 -31 -106 -34q-178 -8 -201 -13q-113 -19 -121 -82q12 -12 60 -12q160 0 309 64q33 14 33 -21t-150 -63q-125 -27 -188 -27q-111 0 -111 59z" />
<glyph unicode="&#xab;" horiz-adv-x="1568" d="M-6 236q4 -37 43 -52q29 -8 137 -18q494 -41 690 -174q25 -18 49 -19q20 0 37 13q33 27 19 69q-25 78 -121 78q4 0 -14 -8q-223 111 -592 143q205 100 438 297q227 188 227 246q0 37 -41 49q-36 11 -61 -26q-43 -68 -266 -246q-268 -211 -447 -266q-104 -31 -98 -86z M537 324q4 -39 43 -52q29 -10 137 -20q494 -41 690 -174q25 -18 49 -19q20 0 37 13q33 27 18 71q-25 76 -120 76q4 0 -15 -8q-223 111 -592 143q203 102 439 297q227 188 227 246q0 37 -41 49q-36 11 -61 -26q-43 -68 -267 -246q-268 -211 -446 -264q-104 -33 -98 -86z" />
<glyph unicode="&#xac;" horiz-adv-x="1331" d="M6 864q0 68 94 68q49 0 287 78q94 31 647 30q78 0 215 -45q47 -16 47 -65q0 -41 -34 -62q0 -49 -5.5 -150.5t-5.5 -150.5q1 -74 9 -133q20 -14 20 -53q0 -33 -16.5 -61.5t-40.5 -28.5q-45 0 -62 176q-12 117 -12 213q0 68 6 130t6 64q-92 29 -129 29q-532 0 -606 -24 q-256 -84 -328 -84q-92 0 -92 69z" />
<glyph unicode="&#xad;" d="M6 639q0 68 94 68q49 0 287 77q84 35 170 68q113 45 170 45q80 0 215 -45q47 -16 47 -66q0 -29 -19.5 -49t-47.5 -20q-23 0 -91.5 21.5t-105.5 21.5q-41 0 -147 -45q-147 -59 -152 -62q-256 -84 -328 -84q-92 0 -92 70z" />
<glyph unicode="&#xae;" horiz-adv-x="1867" d="M16 614q0 156 217 353q160 145 340 239q-6 14 -6 31q0 68 168 109q123 31 228 30q283 0 516 -133q279 -158 278 -418q0 -266 -444 -436q-354 -135 -682 -135q-524 0 -608 307q-6 27 -7 53zM137 592q66 -223 490 -223q264 0 596 112q416 141 415 344q0 182 -192 303 q-160 98 -381 125q39 -25 39 -53q0 -57 -51 -57q-31 0 -98.5 23.5t-88.5 23.5q-88 0 -280.5 -112.5t-325.5 -243.5q-152 -152 -123 -242zM563 899q0 43 45 43q41 0 99 -141q133 160 419 221q23 4 39.5 -8.5t16.5 -34.5q0 -35 -35 -45q-154 -43 -229 -82q-128 -66 -175 -166 q20 -80 21 -123q0 -86 -62 -86q-66 0 -65 123q0 53 12 94q-37 127 -74 172q-12 14 -12 33z" />
<glyph unicode="&#xaf;" horiz-adv-x="888" d="M27 1438q0 57 75 57q41 0 236 64q70 27 137 55q92 37 139 37q66 0 177 -39q37 -12 36 -53q0 -55 -53 -56q-18 0 -74.5 17.5t-85.5 17.5q-35 0 -120 -37q-121 -49 -125 -51q-209 -68 -269 -68q-74 0 -73 56z" />
<glyph unicode="&#xb0;" horiz-adv-x="385" d="M84 1421q0 35 37 73t72 38q29 0 73.5 -36t44.5 -64q0 -37 -36.5 -71t-73.5 -34q-35 0 -76 29.5t-41 64.5zM117 1421q-2 -18 29.5 -39.5t54.5 -21.5t50.5 23.5t27.5 46.5q0 18 -33 41.5t-51 23.5q-29 0 -53.5 -27.5t-24.5 -46.5z" />
<glyph unicode="&#xb1;" horiz-adv-x="704" d="M27 504q0 18 18 28q33 16 248 60q-14 104 -17 110q-14 84 -28 103q-2 6 -2 10q0 35 33 35q43 0 77 -248q12 4 121 31q74 18 119 18q63 0 63 -35q0 -27 -24 -30q4 0 -43 0q-41 0 -113 -19q-98 -27 -112 -28q23 -152 67 -246q4 -8 4 -14q0 -33 -35 -33q-55 0 -100 280 q-10 -2 -129 -30q-109 -27 -117 -27q-31 0 -30 35zM121 49q0 35 48 35t159.5 48t152.5 48q37 0 76 -12q53 -16 53 -45q0 -33 -32 -33q-16 0 -48.5 10.5t-50.5 10.5q-27 0 -142.5 -47.5t-170.5 -47.5q-45 0 -45 33z" />
<glyph unicode="&#xb2;" horiz-adv-x="677" d="M14 1485q0 59 224 160q209 94 297 94q78 0 77 -58q0 -39 -143 -122q-129 -76 -260 -152q-137 -88 -125 -137q2 -10 20 -13q14 -2 39 0q35 2 35 3q94 0 354 22q70 6 70 -22q0 -23 -22 -27q-2 -2 -41 -4q-262 -23 -357 -23q-86 0 -98 2q-49 8 -55 56q-10 70 131 168 q70 49 260 151q137 76 129 92q-4 12 -29 13q-68 0 -224.5 -77t-234.5 -145q-10 -8 -20 -8q-27 0 -27 27z" />
<glyph unicode="&#xb3;" horiz-adv-x="894" d="M16 1262q0 66 224 96q139 18 284 18q158 0 158 -37q0 -41 -49 -41q-86 0 -86 29q0 4 2 8q-23 4 -68 4q-131 0 -254 -20q-150 -23 -155 -59q-8 -47 264 -48q141 0 258 31q174 45 174 143q0 117 -166 154q-53 10 -258 21q-49 2 -49 22v2q0 8 8 16.5t162 65.5q-35 2 -100 2 q8 0 -52 -4q-45 -2 -69 2q-35 4 -35 21q0 23 51 24q-72 -2 98 -2q104 0 103 0q80 -6 80 -35q0 -25 -64 -49q-41 -12 -82 -27q412 -6 412 -213q0 -123 -186 -178q-123 -34 -287 -34q-96 0 -180 12q-137 25 -138 76z" />
<glyph unicode="&#xb4;" horiz-adv-x="653" d="M27 1274q0 -98 43 -98q109 0 108 96q0 10 -2 33v32q0 105 123 105q203 0 203 84q0 37 -45 66.5t-107 29.5q-119 0 -221 -113.5t-102 -234.5z" />
<glyph unicode="&#xb5;" horiz-adv-x="1173" d="M2 -283q-4 -31 15.5 -50t48.5 -17q63 6 81 141q2 6 19 272q10 164 47 209q68 -201 317 -237q43 -6 84 -6q236 0 336 188q72 -109 97 -131q45 -43 143 -66q29 -6 50.5 11.5t21.5 46.5q0 37 -52 55q-76 25 -108 55q-68 61 -98 199q6 37 6 90q0 183 -70 193q-61 8 -61 -86 q0 -25 6 -74t6 -74q0 -129 -74 -210t-201 -81q-33 0 -69 7q-152 20 -205 110q-25 43 -39 158q-8 82 -55 90q-29 4 -75 -13.5t-54 -39.5q-68 -188 -94 -447q-10 -147 -23 -293z" />
<glyph unicode="&#xb6;" horiz-adv-x="1542" d="M-213 1245q0 98 147 195q100 66 224 106q342 117 1009 176q584 53 1268 54q553 0 965.5 -34t490.5 -89q47 -33 47 -76q0 -45 -50 -68.5t-136 -23.5q-90 0 -127 26q-20 14 -21 41q0 51 54 54q-424 61 -1258 61q-1548 0 -2207 -223q-72 -25 -160 -72q-135 -72 -135 -125 q0 -133 1022 -248q2 274 2 465q0 102 51 103q43 0 49 -97q0 10 0 -124q0 -154 -2 -359q150 -16 242 -29q2 150 -7 179q-4 8 -4 18q0 59 56 59q14 0 26 -8q39 -29 41 -266q219 -37 232 -113q4 -14 4 -26q0 -86 -84 -86q-55 0 -156 57q-10 -240 -41 -553q-27 -268 -41 -342 q-10 -41 -51 -41q-27 0 -44 17.5t-11 46.5q61 295 78 948q-94 14 -242 31q-4 -515 -4 -691q0 -242 8 -299q20 -16 20 -53q0 -35 -16 -63.5t-41 -28.5q-45 0 -61 176q-16 160 -17 367q0 111 6 303q4 215 7 301q-526 59 -736 104q-303 68 -370 170q-27 41 -27 80z" />
<glyph unicode="&#xb7;" horiz-adv-x="346" d="M33 825q0 -45 30.5 -75.5t73.5 -30.5q25 0 67 43t42 67q0 35 -41 65t-78 30q-41 0 -67.5 -29t-26.5 -70z" />
<glyph unicode="&#xb8;" horiz-adv-x="364" d="M-12 -428q-6 23 22 61q23 27 45 54l54 63q-18 35 -19 86q0 107 57 115q20 2 37 2q84 0 101 -66q6 -16 6 -34q0 -90 -137 -252q-39 -47 -43 -52q-29 -27 -60 -26q-51 0 -63 49z" />
<glyph unicode="&#xb9;" horiz-adv-x="583" d="M-268 1171q0 14 34.5 27.5t53.5 13.5q6 0 13 -6t3 -12q59 10 363 43q49 6 147 14q-39 96 -43 179q-98 -109 -147 -109q-20 0 -21 18q0 12 17 17q25 4 81 55q51 45 72 72q8 78 37 78q20 0 20 -21q0 -31 -24 -67q-2 -12 -2 -21q0 -80 43 -192q14 -4 86 2t90 14q4 4 10 4 q10 0 15 -10q4 -11 -2 -19q-14 -14 -168 -30q-100 -8 -199 -17q-49 -4 -387 -43q-92 -10 -92 10z" />
<glyph unicode="&#xba;" horiz-adv-x="757" d="M33 1376q0 -72 137 -94q49 -8 115 -8q147 0 274 33q141 39 160 96q14 43 -19 84q-43 53 -161 98q-111 43 -185 43q-14 0 -20 -2q-301 -109 -301 -250zM70 1376q0 53 96 121q86 61 180 94q27 8 139 -26q127 -41 177 -92q30 -31 22 -58q-14 -41 -139 -72.5t-260 -31.5 q-61 0 -111 8q-104 16 -104 57z" />
<glyph unicode="&#xbb;" horiz-adv-x="1622" d="M20 678q0 -45 46 -94q51 -59 131 -84q45 -14 323 -23q268 -8 350 -20q-47 -41 -196 -154q-115 -86 -275 -223q-14 -10 -34 -29q-53 -53 -54 -94q0 -29 24.5 -52.5t57.5 -8.5q57 23 80 129q74 66 258 204q168 127 215 171t47 75q0 53 -90 70q-80 16 -381 24 q-133 4 -299 19q-49 16 -84 49q-25 27 -26 43q-9 45 -52 41q-41 -4 -41 -43zM553 840q0 -43 45 -95q51 -57 131 -81q47 -14 324 -23q268 -8 352 -20q-47 -41 -197 -154q-115 -86 -276 -223q-12 -10 -35 -31q-51 -53 -51 -94q0 -27 23.5 -51.5t58.5 -10.5q57 25 80 131 q72 63 256 205q168 127 216 171t48 75q0 53 -90 70q-80 14 -381 24q-133 4 -299 19q-51 14 -84 49q-25 25 -29 41q-8 45 -49 43q-43 -4 -43 -45z" />
<glyph unicode="&#xbc;" horiz-adv-x="1007" d="M-268 1171q0 14 34.5 27.5t53.5 13.5q6 0 13 -6t3 -12q59 10 363 43q49 6 147 14q-39 96 -43 179q-98 -109 -147 -109q-20 0 -21 18q0 12 17 17q25 4 81 55q51 45 72 72q8 78 37 78q20 0 20 -21q0 -31 -24 -67q-2 -12 -2 -21q0 -80 43 -192q14 -4 86 2t90 14q4 4 10 4 q10 0 15 -10q4 -11 -2 -19q-14 -14 -168 -30q-100 -8 -199 -17q-49 -6 -387 -43q-92 -10 -92 10zM0 41q70 203 471 889q383 651 449 717q23 20 47 -2q23 -20 0 -46q-63 -72 -435 -700q-399 -676 -469 -881q-10 -31 -43 -20q-31 10 -20 43zM430 303q0 33 113 33 q59 39 186 110q-2 6 -2 13q0 16 33 30q27 10 47 11q-66 299 -66 381q0 23 21 22q23 0 22 -22q0 -76 58 -336q37 -166 49 -244q123 -20 160 -31q14 -6 14 -20q0 -31 -29 -21q-41 12 -137 27q16 -117 6 -180q-2 -18 -20 -19q-27 0 -23 27q10 59 -8 178q-174 25 -301 29 q-49 -29 -76 -29q-14 0 -30.5 13.5t-16.5 27.5zM618 332q100 -6 230 -25q-11 57 -27 133l-2 -2q-104 -43 -201 -106z" />
<glyph unicode="&#xbd;" horiz-adv-x="1007" d="M-268 1171q0 14 34.5 27.5t53.5 13.5q6 0 13 -6t3 -12q59 10 363 43q49 6 147 14q-39 96 -43 179q-98 -109 -147 -109q-20 0 -21 18q0 12 17 17q25 4 81 55q51 45 72 72q8 78 37 78q20 0 20 -21q0 -31 -24 -67q-2 -12 -2 -21q0 -80 43 -192q14 -4 86 2t90 14q4 4 10 4 q10 0 15 -10q4 -11 -2 -19q-14 -14 -168 -30q-100 -8 -199 -17q-49 -6 -387 -43q-92 -10 -92 10zM0 41q70 203 471 889q383 651 449 717q23 20 47 -2q23 -20 0 -46q-63 -72 -435 -700q-399 -676 -469 -881q-10 -31 -43 -20q-31 10 -20 43zM442 471q0 53 197 143 q188 84 266 84q70 0 70 -51q0 -39 -242.5 -176t-230.5 -192q2 -8 20 -11q12 -2 35 0l29 2q86 0 319 19q59 6 60 -19q0 -23 -56 -28q-233 -20 -317 -21q-78 0 -88 2q-45 8 -51 51q-8 61 116 150q63 43 234 135q123 68 117 82q-6 10 -27 10q-59 0 -199.5 -68.5t-212.5 -127.5 q-8 -6 -16 -6q-23 0 -23 22z" />
<glyph unicode="&#xbe;" horiz-adv-x="1007" d="M-145 1171q0 63 211 93q129 16 268 16q147 0 147 -35q0 -39 -47 -39q-80 0 -80 29q0 4 2 8q-23 2 -65 2q-123 0 -238 -18q-141 -20 -147 -58q-6 -43 250 -43q135 0 243 29q162 43 162 135q0 111 -155 144q-51 12 -244 18q-45 2 -45 25q0 6 7 14t152 63h-94q6 0 -49 -2 q-41 -2 -65 2q-33 4 -33 19q0 20 49 22q-68 -2 94 -2q96 0 94 0q74 -4 74 -32q0 -23 -57 -45q-39 -12 -78 -25q387 -6 387 -201q0 -115 -174 -166q-116 -34 -270 -34q-299 0 -299 81zM0 41q70 203 471 889q383 651 449 717q23 20 47 -2q23 -20 0 -46q-63 -72 -435 -700 q-399 -676 -469 -881q-10 -31 -43 -20q-31 10 -20 43zM430 303q0 33 113 33q59 39 186 110q-2 6 -2 13q0 16 33 30q27 10 47 11q-66 299 -66 381q0 23 21 22q23 0 22 -22q0 -76 58 -336q37 -166 49 -244q123 -20 160 -31q14 -6 14 -20q0 -31 -29 -21q-41 12 -137 27 q16 -117 6 -180q-2 -18 -20 -19q-27 0 -23 27q10 59 -8 178q-174 25 -301 29q-49 -29 -76 -29q-14 0 -30.5 13.5t-16.5 27.5zM618 332q100 -6 230 -25q-11 57 -27 133l-2 -2q-104 -43 -201 -106z" />
<glyph unicode="&#xbf;" horiz-adv-x="2037" d="M10 -31q0 -43 33 -78q74 -74 281 -73q303 0 852 155q294 82 497 158q223 82 299 131q43 31 45 64q2 35 -32.5 55t-112.5 20q-72 0 -391 -47l-183 -28q-57 -8 -49 -56q6 -49 49 -43l201 29q115 20 330 45q-256 -115 -686 -235q-516 -145 -813 -148q-49 0 -119 10 q-104 14 -100 43q10 78 510 367q279 160 370 229q131 98 131 170q0 47 -32 72q-20 16 -54 16q-29 0 -98 -22l-31 -8q-20 -6 -35.5 -24.5t-11.5 -37.5q12 -47 49 -39l60 15q14 4 45 14q-43 -70 -443 -299q-264 -152 -321 -191q-240 -164 -240 -264zM991 1419q-31 -31 2 -67 q14 -16 43 -13q-12 -16 -12 -26q0 -23 14 -37q35 -35 70 0q37 37 37 94q0 72 -55 86q-47 12 -99 -37z" />
<glyph unicode="&#xc0;" horiz-adv-x="1527" d="M-932 35q0 27 33 51.5t225 46.5q125 12 252 27q74 10 522 102q20 90 56 273q18 115 18 552q0 76 -30.5 196t-30.5 175t55 55q49 0 74 -90q10 -66 22 -129q10 -45 66 -149q14 25 43 24q53 0 53 -51q0 -20 -25 -98q186 -295 521 -571q328 84 495 161q12 6 27 6q53 0 53 -51 q0 -29 -29 -49q-59 -47 -442 -151q150 -98 297 -195q233 -158 233 -203q1 -69 -118 -69q-225 0 -611 84q-444 96 -608 110l-16 -131q-20 -90 -70 -90q-61 0 -61 121q0 31 6 100q-152 -8 -453 -37q-119 -20 -239 -43q-143 -27 -240 -26q-78 0 -78 49zM-244 1915q0 37 44 66.5 t108 29.5q117 0 219 -113.5t102 -232.5q0 -100 -41 -100q-109 0 -108 98v31q2 23 2 32q0 105 -125 105q-201 0 -201 84zM242 291q301 63 551 125q-265 227 -433 467q-29 -96 -57 -191q-33 -113 -45 -194q-6 -70 -16 -207zM281 188q111 -8 473 -75q199 -41 602 -103 q-250 152 -461 320q-268 -68 -614 -142z" />
<glyph unicode="&#xc1;" horiz-adv-x="1441" d="M-979 66q0 27 33 51t225 47q125 12 252 26q72 10 522 103q20 90 56 272q18 115 18 553q0 76 -30.5 196t-30.5 175t55 55q49 0 72 -90q12 -66 24 -131q10 -43 66 -147q14 25 43 24q53 0 53 -51q0 -20 -25 -98q186 -295 520 -572q328 84 496 162q12 6 27 6q53 0 53 -51 q0 -29 -29 -49q-61 -47 -442 -152q150 -98 297 -194q233 -158 233 -203q1 -70 -118 -70q-225 0 -611 84q-444 96 -608 111l-16 -131q-20 -90 -70 -90q-61 0 -61 121q0 31 6 100q-152 -8 -453 -37q-119 -20 -240 -43q-143 -27 -239 -27q-78 0 -78 50zM31 1763q0 -100 43 -100 q109 0 108 98q0 10 -2 31v33q0 106 123 106q201 0 201 84q0 35 -44 64.5t-106 29.5q-119 0 -221 -113.5t-102 -232.5zM195 322q301 63 550 124q-264 227 -432 467q-29 -96 -57 -190q-33 -113 -45 -195q-6 -70 -16 -206zM233 219q111 -8 472 -76q201 -41 604 -102 q-250 151 -461 319q-268 -68 -615 -141z" />
<glyph unicode="&#xc2;" horiz-adv-x="1421" d="M-981 53q0 25 33 49.5t225 47.5q125 14 252 26q74 10 522 103q20 90 55 272q18 115 19 553q0 76 -31 196.5t-31 176.5q0 53 56 53q49 0 71 -90q12 -63 25 -129q10 -43 66 -148q14 23 43 23q53 0 53 -49q0 -23 -25 -99q186 -295 520 -573q328 84 496 162q12 6 27 6 q53 0 53 -51q0 -27 -29 -50q-59 -47 -442 -149q150 -98 297 -197q233 -158 233 -200q1 -72 -118 -72q-225 0 -611 84q-444 96 -608 113q-16 -131 -16 -134q-20 -90 -70 -90q-61 0 -61 123q0 29 6 99q-152 -6 -453 -35q-119 -23 -240 -43q-143 -27 -239 -27q-78 0 -78 49z M-268 1440q0 66 106 223q88 131 154 199q20 18 53 2q14 43 27 84q16 55 45 59q33 4 55 -35q6 -8 29 -69q125 -332 286 -465q16 -14 17 -33q0 -45 -43 -45q-17 0 -29 10q-176 145 -303 475q-68 -143 -176 -293q-123 -166 -176 -163q-16 2 -30.5 18t-14.5 33zM193 309 q301 61 550 123q-264 227 -432 469q-29 -96 -57 -192q-33 -113 -45 -195q-6 -70 -16 -205zM231 205q111 -6 474 -76q199 -39 602 -102q-250 151 -461 321q-268 -68 -615 -143z" />
<glyph unicode="&#xc3;" horiz-adv-x="1449" d="M-991 76q0 27 32.5 50.5t225.5 47.5q125 12 252 27q74 8 522 102q23 90 55 270q18 117 19 555q0 76 -31 196t-31 175q0 53 56 53q49 0 73 -88q10 -66 23 -131q10 -43 65 -147q14 25 43 24q53 0 54 -51q0 -23 -25 -98q186 -295 520 -572q328 84 496 160q12 6 26 6 q53 0 54 -49q0 -29 -29 -51q-59 -47 -442 -149q150 -98 297 -197q233 -156 233 -201q0 -69 -119 -69q-225 0 -610 81q-444 96 -608 113q-16 -131 -17 -131q-20 -90 -69 -90q-61 0 -62 121q0 31 6 98q-152 -6 -452 -35q-119 -23 -238 -43q-143 -27 -241 -26q-78 0 -78 49z M-295 1632q-18 -35 14 -53q27 -14 64 29q57 72 88 94q76 55 184 55q74 0 125 -94q18 -33 29 -49q20 -25 45 -35t57 -10q100 0 160 59q27 27 27 51q0 20 -15.5 36t-42.5 16q-35 0 -63 -29q-6 -18 -12 -35q-8 -29 -35 -29q-18 0 -45 13q-12 4 -37 49q-72 135 -193 135 q-239 0 -350 -203zM182 332q301 63 551 125q-264 227 -432 467q-29 -96 -57 -193q-33 -111 -45 -194q-4 -68 -17 -205zM221 229q111 -8 473 -77q199 -39 602 -101q-249 152 -460 320q-268 -68 -615 -142z" />
<glyph unicode="&#xc4;" horiz-adv-x="1380" d="M-995 61q0 25 32.5 49.5t225.5 47.5q125 14 250 26q74 10 524 103q20 90 55 272q16 115 17 553q0 76 -30 197t-30 176q0 53 53 53q49 0 74 -90q12 -63 25 -129q8 -43 63 -148q16 23 45 23q53 0 53 -49q0 -23 -26 -98q186 -295 522 -574q326 84 494 162q14 6 26 6 q53 0 54 -51q0 -27 -27 -49q-61 -47 -442 -150q147 -98 297 -196q233 -158 233 -201q0 -72 -119 -72q-227 0 -610 84q-446 96 -608 113q-16 -133 -17 -133q-20 -90 -69 -90q-63 0 -64 122q0 29 8 99q-152 -6 -452 -35q-121 -23 -240 -45q-143 -25 -242 -25q-76 0 -75 49z M-88 1669q0 55 80 55q51 0 51 -49q0 -51 -51 -51q-80 0 -80 45zM160 1673q0 -51 55 -51q59 0 59 57q0 14 -24.5 37t-36.5 23q-20 0 -36.5 -22.5t-16.5 -43.5zM176 315q301 63 551 125q-262 227 -430 469q-31 -96 -59 -192q-31 -113 -43 -195q-6 -70 -19 -207zM217 213 q109 -6 471 -76q201 -41 604 -102q-250 151 -461 321q-268 -70 -614 -143z" />
<glyph unicode="&#xc5;" horiz-adv-x="1398" d="M-985 92q0 27 32.5 51.5t225.5 46.5q125 12 252 27q74 10 522 102q23 90 57 273q16 115 17 553q0 76 -31 195.5t-31 175.5q0 55 56 55q49 0 73 -90q10 -66 23 -129q10 -45 65 -150q16 25 43 25q53 0 54 -51q0 -20 -25 -99q186 -295 520 -571q328 84 496 162q12 6 27 6 q53 0 53 -51q0 -29 -29 -50q-59 -47 -442 -151q150 -98 299 -195q231 -158 231 -202q0 -70 -119 -70q-225 0 -608 84q-446 96 -610 111q-16 -131 -16 -132q-20 -90 -70 -90q-61 0 -62 121q0 31 7 101q-152 -8 -453 -37q-119 -20 -238 -43q-143 -27 -241 -27q-78 0 -78 49z M8 1696q0 55 78 55q51 0 51 -49q0 -53 -49 -53q-80 0 -80 47zM188 348q301 63 551 125q-264 227 -432 467q-29 -96 -57 -190q-33 -113 -45 -195q-4 -70 -17 -207zM227 246q111 -8 473 -76q199 -41 603 -102q-248 151 -461 319q-266 -68 -615 -141z" />
<glyph unicode="&#xc6;" horiz-adv-x="3995" d="M23 55q0 25 32.5 49.5t225.5 47.5q125 14 249 26q74 10 525 103q20 90 55 272q16 115 16 553q0 76 -29.5 196.5t-29.5 176.5q0 53 53 53q51 0 74 -90q12 -63 25 -129q10 -43 63 -148q16 23 45 23q53 0 53 -49q0 -23 -24 -99q20 -35 43 -67q451 217 899 432 q786 371 880 371q35 0 35 -29q0 -31 -37.5 -70t-78.5 -39l-1586 -813q20 -27 43 -51l426 -389l408 -268q375 96 1143 96q133 0 327 -29q223 -31 301 -73q31 -18 62 -52q37 -41 37 -69q0 -61 -64 -62q-25 0 -49 27q-33 39 -41 45q-49 33 -272 63q-199 27 -301 27 q-463 0 -1139 -174q-227 0 -610 84q-444 96 -608 113q-16 -133 -17 -133q-20 -90 -70 -91q-63 0 -63 121q0 31 8 101q-152 -6 -452 -35q-119 -23 -240 -45q-143 -25 -242 -25q-76 0 -75 49zM1196 309q301 63 549 125q-262 227 -430 469l-58 -192q-33 -113 -45 -195 q-6 -70 -16 -207zM1235 207q111 -6 471 -76q201 -41 604 -102q-250 151 -461 321q-268 -70 -614 -143zM1554 774l426 -389q551 147 803 383q39 37 39 72q0 47 -69 84q-61 31 -121 30q-147 0 -348 -26q-172 -27 -347 -54q-55 -8 -187 -50t-196 -50zM1628 686q117 27 328 68 q123 25 244 49q203 39 305 39q121 0 121 -41q-1 -84 -742 -340q-82 90 -256 225z" />
<glyph unicode="&#xc7;" horiz-adv-x="2793" d="M18 160q0 188 285 450q391 360 1022 662q688 330 1157 330q276 0 449 -107q207 -129 207 -387q0 -117 -54 -254q-66 -174 -162 -174q-135 0 -135 219q0 94 62 94q59 0 59 -104q0 -68 14 -90q41 47 68 149q27 92 27 162q0 205 -176 299q-135 72 -361 72q-449 0 -1112 -320 q-608 -295 -983 -639q-246 -227 -246 -356q0 -279 563 -385q309 -57 773 -57q541 0 1114 65q627 72 1099 203q88 25 125 24q80 0 80 -69q0 -61 -114 -107q-94 -37 -168 -37q-33 0 -50 33q-727 -170 -1542 -219q-8 -47 -16 -63q-2 -4 -35 -50q-143 -197 -246 -196 q-82 0 -94 119q-4 35 44 62.5t104 27.5q18 0 34 -4q61 80 50 79v2q0 4 6 13q-78 -4 -398 -4q-524 0 -860 75q-590 133 -590 482z" />
<glyph unicode="&#xc8;" horiz-adv-x="2412" d="M-416 -414q0 31 13 64q72 205 823 543q506 215 1014 430q-160 -6 -641 -78q-162 -25 -324 -49q-190 -25 -326 -25q-113 0 -129 4q-49 14 -55 88q-4 98 438 330q125 66 525 250q920 426 1093 426q61 0 62 -62q0 -61 -62 -61q-150 0 -936 -367q-745 -348 -946 -485 q133 -2 322 24q160 25 319 50q172 27 346 51q201 29 346 29q66 0 123 -21q72 -25 72 -68q0 -29 -39 -65q-57 -53 -295 -156q-158 -66 -315 -131q-502 -207 -729 -315q-573 -272 -574 -395q0 -76 207 -76q223 0 627 90q104 23 626 158q535 137 596 151q379 86 602 86 q133 0 328 -29q223 -33 301 -73q31 -18 63.5 -55t32.5 -68q0 -62 -61 -62q-25 0 -49 29q-35 39 -41 45q-49 33 -275 62q-197 29 -301 28q-209 0 -583 -86q-57 -14 -582 -147q-532 -137 -635 -160q-406 -90 -639 -90q-123 0 -217 37q-125 51 -125 149zM827 1769q0 37 45.5 67 t106.5 30q119 0 221.5 -114t102.5 -232q0 -100 -43 -101q-109 0 -109 97q0 10 2 32v33q0 105 -125 105q-201 0 -201 83z" />
<glyph unicode="&#xc9;" horiz-adv-x="2107" d="M-416 -414q0 31 13 64q72 205 823 543q506 215 1014 430q-160 -6 -641 -78q-162 -25 -324 -49q-190 -25 -326 -25q-113 0 -129 4q-49 14 -55 88q-4 98 438 330q125 66 525 250q920 426 1093 426q61 0 62 -62q0 -61 -62 -61q-150 0 -936 -367q-745 -348 -946 -485 q133 -2 322 24q160 25 319 50q172 27 346 51q201 29 346 29q66 0 123 -21q72 -25 72 -68q0 -29 -39 -65q-57 -53 -295 -156q-158 -66 -315 -131q-502 -207 -729 -315q-573 -272 -574 -395q0 -76 207 -76q223 0 627 90q104 23 626 158q535 137 596 151q379 86 602 86 q133 0 328 -29q223 -33 301 -73q31 -18 63.5 -55t32.5 -68q0 -62 -61 -62q-25 0 -49 29q-35 39 -41 45q-49 33 -275 62q-197 29 -301 28q-209 0 -583 -86q-57 -14 -582 -147q-532 -137 -635 -160q-406 -90 -639 -90q-123 0 -217 37q-125 51 -125 149zM1128 1532 q0 -98 41 -98q109 0 109 96v33q-2 20 -2 32q0 105 125 105q201 0 201 84q0 37 -44.5 66.5t-107.5 29.5q-117 0 -219.5 -113.5t-102.5 -234.5z" />
<glyph unicode="&#xca;" horiz-adv-x="2158" d="M-416 -414q0 31 13 64q72 205 823 543q506 215 1014 430q-160 -6 -641 -78q-162 -25 -324 -49q-190 -25 -326 -25q-113 0 -129 4q-49 14 -55 88q-4 98 438 330q125 66 525 250q920 426 1093 426q61 0 62 -62q0 -61 -62 -61q-150 0 -936 -367q-745 -348 -946 -485 q133 -2 322 24q160 25 319 50q172 27 346 51q201 29 346 29q66 0 123 -21q72 -25 72 -68q0 -29 -39 -65q-57 -53 -295 -156q-158 -66 -315 -131q-502 -207 -729 -315q-573 -272 -574 -395q0 -76 207 -76q223 0 627 90q104 23 626 158q535 137 596 151q379 86 602 86 q133 0 328 -29q223 -33 301 -73q31 -18 63.5 -55t32.5 -68q0 -62 -61 -62q-25 0 -49 29q-35 39 -41 45q-49 33 -275 62q-197 29 -301 28q-209 0 -583 -86q-57 -14 -582 -147q-532 -137 -635 -160q-406 -90 -639 -90q-123 0 -217 37q-125 51 -125 149zM584 1462q0 66 106 224 q88 131 156 198q18 18 53 2q12 43 25 84q16 55 45 60q35 4 57 -35q4 -8 27 -70q125 -332 286 -465q16 -14 17 -33q0 -45 -43 -45q-15 1 -29 11q-176 145 -303 475q-68 -143 -176 -293q-121 -166 -176 -164q-16 2 -30.5 18.5t-14.5 32.5z" />
<glyph unicode="&#xcb;" horiz-adv-x="2054" d="M-416 -414q0 31 13 64q72 205 823 543q506 215 1014 430q-160 -6 -641 -78q-162 -25 -324 -49q-190 -25 -326 -25q-113 0 -129 4q-49 14 -55 88q-4 98 438 330q125 66 525 250q920 426 1093 426q61 0 62 -62q0 -61 -62 -61q-150 0 -936 -367q-745 -348 -946 -485 q133 -2 322 24q160 25 319 50q172 27 346 51q201 29 346 29q66 0 123 -21q72 -25 72 -68q0 -29 -39 -65q-57 -53 -295 -156q-158 -66 -315 -131q-502 -207 -729 -315q-573 -272 -574 -395q0 -76 207 -76q223 0 627 90q104 23 626 158q535 137 596 151q379 86 602 86 q133 0 328 -29q223 -33 301 -73q31 -18 63.5 -55t32.5 -68q0 -62 -61 -62q-25 0 -49 29q-35 39 -41 45q-49 33 -275 62q-197 29 -301 28q-209 0 -583 -86q-57 -14 -582 -147q-532 -137 -635 -160q-406 -90 -639 -90q-123 0 -217 37q-125 51 -125 149zM877 1540q-1 55 79 55 q51 0 52 -51q0 -51 -52 -51q-80 0 -79 47zM1124 1544q1 -51 56 -51q59 0 59 57q0 14 -23.5 37t-37.5 23q-20 0 -37 -22.5t-17 -43.5z" />
<glyph unicode="&#xcc;" horiz-adv-x="327" d="M-416 2136q0 29 36 53.5t85 24.5q98 0 182 -93t80 -188q-4 -55 -9 -67.5t-26 -12.5q-88 0 -88 78q0 8 2 27v24q0 86 -100 86q-162 0 -162 68zM-41 1677q0 -25 18 -43q78 -78 125 -602q43 -473 43 -1083q0 -59 62 -60q59 0 59 60q0 528 -30 952q-51 696 -175 817 q-18 18 -43 19q-59 -1 -59 -60z" />
<glyph unicode="&#xcd;" horiz-adv-x="335" d="M-117 1884q0 -84 35 -84q92 0 92 82v28.5v26.5q1 91 107 91q172 0 172 71q0 33 -39 57.5t-92 24.5q-100 0 -187.5 -97t-87.5 -200zM-41 1677q0 -25 18 -43q78 -78 125 -602q43 -473 43 -1083q0 -59 62 -60q59 0 59 60q0 528 -30 952q-51 696 -175 817q-18 18 -43 19 q-59 -1 -59 -60z" />
<glyph unicode="&#xce;" horiz-adv-x="337" d="M-340 1636q0 57 92 191q76 113 131 168q16 16 45 2q12 37 23 74q14 47 39 49q29 4 47 -31q4 -6 24 -57q104 -283 244 -398q14 -10 14 -26q0 -39 -36 -39q-13 0 -25 8q-150 125 -258 405q-59 -123 -152 -249q-102 -141 -147 -140q-41 2 -41 43zM-41 1677q0 -25 18 -43 q78 -78 125 -602q43 -473 43 -1083q0 -59 62 -60q59 0 59 60q0 528 -30 952q-51 696 -175 817q-18 18 -43 19q-59 -1 -59 -60z" />
<glyph unicode="&#xcf;" horiz-adv-x="313" d="M-195 1786q0 55 80 55q51 0 52 -49q0 -51 -52 -51q-80 0 -80 45zM-41 1677q0 -25 18 -43q78 -78 125 -602q43 -473 43 -1083q0 -59 62 -60q59 0 59 60q0 528 -30 952q-51 696 -175 817q-18 18 -43 19q-59 -1 -59 -60zM53 1790q1 -51 56 -51q59 0 59 57q0 14 -23.5 36.5 t-38.5 22.5q-20 0 -36.5 -22.5t-16.5 -42.5z" />
<glyph unicode="&#xd0;" horiz-adv-x="3129" d="M-2929 1851q0 61 80 103q66 33 131 33q27 0 45.5 -19.5t18.5 -44.5q0 -16 -8 -29q610 37 1247 37q1460 0 2576 -182q1929 -317 1929 -1092q0 -471 -743 -782q-578 -242 -1532 -362q-693 -88 -1264 -88q-215 0 -215 96q0 88 179 135q125 33 252 33q147 0 147 -66 q0 -25 -29 -59q991 45 1778 227q1296 301 1296 866q0 199 -174 363q-481 449 -1997 649q-1010 133 -2201 133q-608 0 -1307 -43q-209 -12 -209 92zM123 463q0 66 96 65q109 0 385 117q-45 352 -45 522q0 63 66 64q66 0 65 -64q0 -215 35 -475q72 27 135 27q72 0 201 -45 q47 -16 47 -66q0 -70 -66 -69q-47 0 -101 20.5t-87 20.5q-46 0 -109 -25q61 -379 166 -580q10 -18 11 -38q0 -63 -66 -64q-133 0 -231 633q-268 -115 -408 -115q-94 0 -94 72z" />
<glyph unicode="&#xd1;" horiz-adv-x="2230" d="M31 1747q0 -53 47 -162q2 -61 2 -129q0 -190 -27 -950q-12 -428 -12 -461q-2 -51 53 -53t58 55l38 1323q70 -119 127 -207q262 -391 572 -694q539 -528 956 -485q154 14 238 245q76 217 76 553q0 301 -62 555q-68 276 -182 392q-39 41 -78 0q-39 -39 0 -78 q94 -96 154 -353q57 -244 57 -522q0 -311 -70 -508q-59 -166 -145 -176q-25 -2 -49 -2q-360 0 -844 483q-246 246 -471 566q-186 266 -281 467q-8 170 -38 202q-18 18 -46 19q-73 0 -73 -80zM545 2028q-18 -35 16 -54q27 -14 62 29q59 72 90 94q74 55 182 55q74 0 125 -94 q18 -33 31 -49q18 -25 42.5 -35t57.5 -10q100 0 162 59q25 27 24 52q0 20 -15 35.5t-40 15.5q-37 0 -65 -29q-6 -18 -11 -37q-10 -27 -37 -26q-18 0 -45 12q-12 4 -37 49q-72 135 -192 135q-239 1 -350 -202z" />
<glyph unicode="&#xd2;" horiz-adv-x="2973" d="M20 483q0 147 117 322q193 287 631 596q487 342 801 342q184 0 352 -96q29 -18 29 -50q0 -53 -54 -53q-14 0 -94 35q-86 37 -112 43q-66 16 -129 16q-154 0 -357 -106q-274 -141 -534 -342q-301 -233 -443 -445q-98 -147 -98 -262q0 -31 8 -59q70 -266 398 -383 q238 -84 577 -84q469 0 961 154q348 109 612 274q381 240 381 498q0 422 -473 678q-393 213 -854 213q-129 0 -283 -41q-96 -25 -227 -76q-106 -39 -121 -39q-55 0 -55 53q0 27 24 45q115 84 318 127q168 37 344 37q313 0 626 -104q354 -119 564 -328q246 -244 245 -565 q0 -303 -389 -566q-274 -184 -659 -305q-516 -164 -1008 -164q-381 0 -647 103q-358 139 -440 444q-10 43 -11 88zM1270 2400q0 37 44 67t107 30q117 0 219.5 -114t102.5 -235q0 -98 -41 -98q-109 0 -109 96v33q2 20 2 33q0 104 -125 104q-201 0 -200 84z" />
<glyph unicode="&#xd3;" horiz-adv-x="2990" d="M20 483q0 147 117 322q193 287 631 596q487 342 801 342q184 0 352 -96q29 -18 29 -50q0 -53 -54 -53q-14 0 -94 35q-86 37 -112 43q-66 16 -129 16q-154 0 -357 -106q-274 -141 -534 -342q-301 -233 -443 -445q-98 -147 -98 -262q0 -31 8 -59q70 -266 398 -383 q238 -84 577 -84q469 0 961 154q348 109 612 274q381 240 381 498q0 422 -473 678q-393 213 -854 213q-129 0 -283 -41q-96 -25 -227 -76q-106 -39 -121 -39q-55 0 -55 53q0 27 24 45q115 84 318 127q168 37 344 37q313 0 626 -104q354 -119 564 -328q246 -244 245 -565 q0 -303 -389 -566q-274 -184 -659 -305q-516 -164 -1008 -164q-381 0 -647 103q-358 139 -440 444q-10 43 -11 88zM1241 2050q0 -98 41 -98q109 0 109 96v33q-2 20 -2 33q-1 104 124 104q201 0 201 84q0 37 -44 66.5t-107 29.5q-117 0 -219.5 -113.5t-102.5 -234.5z" />
<glyph unicode="&#xd4;" horiz-adv-x="2994" d="M20 483q0 147 117 322q193 287 631 596q487 342 801 342q184 0 352 -96q29 -18 29 -50q0 -53 -54 -53q-14 0 -94 35q-86 37 -112 43q-66 16 -129 16q-154 0 -357 -106q-274 -141 -534 -342q-301 -233 -443 -445q-98 -147 -98 -262q0 -31 8 -59q70 -266 398 -383 q238 -84 577 -84q469 0 961 154q348 109 612 274q381 240 381 498q0 422 -473 678q-393 213 -854 213q-129 0 -283 -41q-96 -25 -227 -76q-106 -39 -121 -39q-55 0 -55 53q0 27 24 45q115 84 318 127q168 37 344 37q313 0 626 -104q354 -119 564 -328q246 -244 245 -565 q0 -303 -389 -566q-274 -184 -659 -305q-516 -164 -1008 -164q-381 0 -647 103q-358 139 -440 444q-10 43 -11 88zM1288 2087q0 66 107 223q88 131 153 197q20 20 54 4q14 43 26 84q16 55 45 59q33 4 56 -35q4 -8 28 -69q123 -332 287 -465q16 -14 16 -33q0 -45 -45 -45 q-14 0 -26 10q-176 145 -303 475q-70 -143 -177 -292q-123 -166 -176 -164q-16 0 -30.5 17.5t-14.5 33.5z" />
<glyph unicode="&#xd5;" horiz-adv-x="2990" d="M20 483q0 147 117 322q193 287 631 596q487 342 801 342q184 0 352 -96q29 -18 29 -50q0 -53 -54 -53q-14 0 -94 35q-86 37 -112 43q-66 16 -129 16q-154 0 -357 -106q-274 -141 -534 -342q-301 -233 -443 -445q-98 -147 -98 -262q0 -31 8 -59q70 -266 398 -383 q238 -84 577 -84q469 0 961 154q348 109 612 274q381 240 381 498q0 422 -473 678q-393 213 -854 213q-129 0 -283 -41q-96 -25 -227 -76q-106 -39 -121 -39q-55 0 -55 53q0 27 24 45q115 84 318 127q168 37 344 37q313 0 626 -104q354 -119 564 -328q246 -244 245 -565 q0 -303 -389 -566q-274 -184 -659 -305q-516 -164 -1008 -164q-381 0 -647 103q-358 139 -440 444q-10 43 -11 88zM1313 2058q-18 -35 14 -53q27 -14 64 29q57 72 88 94q74 55 184 55q74 0 125 -94q18 -35 29 -49q20 -25 43.5 -35t58.5 -10q100 0 160 59q27 25 26 51 q0 20 -15 36t-42 16q-35 0 -63 -29q-6 -18 -13 -37q-8 -27 -35 -27q-18 0 -45 13q-12 4 -37 49q-72 135 -192 135q-239 0 -350 -203z" />
<glyph unicode="&#xd6;" horiz-adv-x="2994" d="M20 483q0 147 117 322q193 287 631 596q487 342 801 342q184 0 352 -96q29 -18 29 -50q0 -53 -54 -53q-14 0 -94 35q-86 37 -112 43q-66 16 -129 16q-154 0 -357 -106q-274 -141 -534 -342q-301 -233 -443 -445q-98 -147 -98 -262q0 -31 8 -59q70 -266 398 -383 q238 -84 577 -84q469 0 961 154q348 109 612 274q381 240 381 498q0 422 -473 678q-393 213 -854 213q-129 0 -283 -41q-96 -25 -227 -76q-106 -39 -121 -39q-55 0 -55 53q0 27 24 45q115 84 318 127q168 37 344 37q313 0 626 -104q354 -119 564 -328q246 -244 245 -565 q0 -303 -389 -566q-274 -184 -659 -305q-516 -164 -1008 -164q-381 0 -647 103q-358 139 -440 444q-10 43 -11 88zM1493 2052q0 55 80 55q51 0 51 -51t-51 -51q-80 0 -80 47zM1741 2056q0 -51 55 -51q59 0 59 57q0 14 -23.5 37t-37.5 23q-20 0 -36.5 -22.5t-16.5 -43.5z" />
<glyph unicode="&#xd7;" horiz-adv-x="989" d="M23 610q0 57 55 58q20 0 41 -17q76 -68 432 -264q137 244 166 244q57 0 57 -60q0 -31 -49 -114q-39 -61 -76 -123q152 -80 275 -129q39 -14 39 -53q0 -55 -56 -56q-47 1 -313 140q-139 -240 -193 -240q-55 0 -55 55q0 23 16 41q53 59 134 197q-401 221 -457 282 q-16 18 -16 39z" />
<glyph unicode="&#xd8;" horiz-adv-x="3170" d="M20 483q0 147 117 322q131 197 422 436q309 254 602 391q-41 -14 -53 -14q-55 0 -55 53q0 27 24 45q115 84 318 127q168 37 344 37q211 0 434 -51q90 143 106 160q37 35 74 0t2 -74q-10 -12 -74 -113q383 -111 619 -325q274 -252 274 -594q0 -303 -389 -566 q-274 -184 -659 -305q-504 -160 -985 -164q-79 -149 -97 -208q-16 -51 -67 -35q-37 12 -37 51q0 29 86 194q-358 12 -602 121q-317 139 -393 424q-10 43 -11 88zM129 483q0 -31 8 -59q68 -258 381 -377q229 -86 561 -90q393 739 1035 1776q-197 41 -375 41q-135 0 -299 -45 q70 14 129 14q184 0 352 -96q29 -18 29 -50q0 -53 -54 -53q-14 0 -94 35q-86 37 -112 43q-66 16 -129 16q-154 0 -357 -106q-274 -141 -534 -342q-301 -233 -443 -445q-98 -147 -98 -262zM1198 -43q430 14 875 154q348 109 612 274q381 240 381 498q0 309 -262 534 q-224 193 -582 289q-635 -1024 -1024 -1749z" />
<glyph unicode="&#xd9;" horiz-adv-x="1689" d="M47 520q0 -84 8 -160q45 -385 303 -546q63 -39 166 -39q162 0 361 94q219 102 422 291q154 -369 358 -434q57 -18 96 -19q66 0 92 45q12 23 13 47q0 31 -18.5 66t-47.5 35q-53 0 -53 -60q0 -10 2 -18q-197 14 -358 432q68 70 196 225q268 377 268 867q0 229 -59 440 q-53 188 -133 297q-86 121 -180 121q-21 0 -39 -6q-203 -63 -291 -369q-61 -215 -61 -516v-2q0 -545 172 -1037q-197 -190 -410 -297q-188 -94 -330 -94q-68 0 -108 25q-190 121 -242 401q-16 94 -16 205q0 270 92 600q74 266 123 330q12 16 12 35q0 23 -17.5 40t-37.5 17 t-37 -16q-55 -55 -141 -349q-104 -350 -105 -651zM510 2195q0 37 45 67t107 30q119 0 221 -114t102 -232q0 -100 -43 -101q-109 0 -108 97q0 10 2 32v33q0 104 -125 104q-201 0 -201 84zM1202 1311v2q0 223 51 444q80 338 240 338q98 0 184 -338q70 -272 70 -409 q0 -453 -250 -803q-20 -31 -149 -174q-146 448 -146 940z" />
<glyph unicode="&#xda;" horiz-adv-x="1681" d="M47 520q0 -84 8 -160q45 -385 303 -546q63 -39 166 -39q162 0 361 94q219 102 422 291q154 -369 358 -434q57 -18 96 -19q66 0 92 45q12 23 13 47q0 31 -18.5 66t-47.5 35q-53 0 -53 -60q0 -10 2 -18q-197 14 -358 432q68 70 196 225q268 377 268 867q0 229 -59 440 q-53 188 -133 297q-86 121 -180 121q-21 0 -39 -6q-203 -63 -291 -369q-61 -215 -61 -516v-2q0 -545 172 -1037q-197 -190 -410 -297q-188 -94 -330 -94q-68 0 -108 25q-190 121 -242 401q-16 94 -16 205q0 270 92 600q74 266 123 330q12 16 12 35q0 23 -17.5 40t-37.5 17 t-37 -16q-55 -55 -141 -349q-104 -350 -105 -651zM623 1839q0 -100 43 -100q109 0 108 96q0 12 -2 33v33q0 104 125 104q201 0 201 84q0 37 -45 66.5t-107 29.5q-119 0 -221 -113.5t-102 -232.5zM1202 1311v2q0 223 51 444q80 338 240 338q98 0 184 -338q70 -272 70 -409 q0 -453 -250 -803q-20 -31 -149 -174q-146 448 -146 940z" />
<glyph unicode="&#xdb;" horiz-adv-x="1679" d="M47 520q0 -84 8 -160q45 -385 303 -546q63 -39 166 -39q162 0 361 94q219 102 422 291q154 -369 358 -434q57 -18 96 -19q66 0 92 45q12 23 13 47q0 31 -18.5 66t-47.5 35q-53 0 -53 -60q0 -10 2 -18q-197 14 -358 432q68 70 196 225q268 377 268 867q0 229 -59 440 q-53 188 -133 297q-86 121 -180 121q-21 0 -39 -6q-203 -63 -291 -369q-61 -215 -61 -516v-2q0 -545 172 -1037q-197 -190 -410 -297q-188 -94 -330 -94q-68 0 -108 25q-190 121 -242 401q-16 94 -16 205q0 270 92 600q74 266 123 330q12 16 12 35q0 23 -17.5 40t-37.5 17 t-37 -16q-55 -55 -141 -349q-104 -350 -105 -651zM362 1864q0 66 109 223q88 131 154 197q20 20 53 4q12 41 27 84q16 55 45 59q33 4 55 -37q4 -6 29 -67q123 -332 286 -465q16 -14 17 -33q0 -45 -45 -45q-15 0 -27 10q-176 145 -303 475q-70 -143 -178 -293 q-121 -166 -174 -164q-16 0 -32 17.5t-16 34.5zM1202 1311v2q0 223 51 444q80 338 240 338q98 0 184 -338q70 -272 70 -409q0 -453 -250 -803q-20 -31 -149 -174q-146 448 -146 940z" />
<glyph unicode="&#xdc;" horiz-adv-x="1695" d="M47 520q0 -84 8 -160q45 -385 303 -546q63 -39 166 -39q162 0 361 94q219 102 422 291q154 -369 358 -434q57 -18 96 -19q66 0 92 45q12 23 13 47q0 31 -18.5 66t-47.5 35q-53 0 -53 -60q0 -10 2 -18q-197 14 -358 432q68 70 196 225q268 377 268 867q0 229 -59 440 q-53 188 -133 297q-86 121 -180 121q-21 0 -39 -6q-203 -63 -291 -369q-61 -215 -61 -516v-2q0 -545 172 -1037q-197 -190 -410 -297q-188 -94 -330 -94q-68 0 -108 25q-190 121 -242 401q-16 94 -16 205q0 270 92 600q74 266 123 330q12 16 12 35q0 23 -17.5 40t-37.5 17 t-37 -16q-55 -55 -141 -349q-104 -350 -105 -651zM666 1950q-1 55 79 55q51 0 52 -51q0 -51 -52 -51q-80 0 -79 47zM913 1954q1 -51 56 -51q59 0 59 57q0 14 -23.5 36.5t-37.5 22.5q-20 0 -37 -22.5t-17 -42.5zM1202 1311v2q0 223 51 444q80 338 240 338q98 0 184 -338 q70 -272 70 -409q0 -453 -250 -803q-20 -31 -149 -174q-146 448 -146 940z" />
<glyph unicode="&#xdd;" horiz-adv-x="1234" d="M25 694q0 223 73 224q57 0 58 -123q0 -43 -8.5 -117t-8.5 -84q0 -412 189 -412q193 0 454 303q-236 297 -235 586q0 158 71 307q86 186 226 187q156 0 237 -213q61 -160 62 -348q0 -229 -213 -517q129 -143 317 -284q344 -256 479 -381q303 -285 304 -486 q0 -213 -299 -346q-244 -110 -488 -110q-313 0 -596 141q-344 172 -344 453q0 156 156 336q80 92 207 186q154 117 237 117q55 0 55 -58q0 -57 -54 -57t-189 -109q-111 -88 -170 -155q-129 -143 -129 -260q0 -225 317 -367q254 -113 514 -113q184 0 402 84q266 104 266 256 q0 160 -295 428q-129 119 -438 349q-190 141 -326 286q-293 -330 -524 -329q-201 0 -269 231q-39 131 -38 395zM133 1290q0 90 82 90h27q18 -2 26 -2q88 1 88 105q0 168 70 168q31 0 55.5 -37t24.5 -90q0 -98 -94.5 -183.5t-194.5 -85.5q-84 0 -84 35zM662 1071 q0 -240 192 -496q176 248 176 429q0 129 -39 264q-53 182 -149 182q-78 0 -135 -154q-45 -127 -45 -225z" />
<glyph unicode="&#xde;" horiz-adv-x="391" d="M51 293q0 35 47 35q0 180 4 317q4 125 4 344q0 102 52 103q41 0 47 -127q0 8 0 -111q37 -2 98 -27q121 -47 244 -94q156 -68 239 -135q109 -90 109 -197q0 -20 -4 -39q-25 -147 -694 -145q-2 -117 8 -188q23 -16 22 -54q0 -35 -17 -63.5t-42 -28.5q-45 0 -62 176 q-6 68 -8 156l-6 16q-14 2 -27.5 22.5t-13.5 39.5zM197 326h43q10 0 75 -2h107q344 0 356 82q10 59 -106 133q-74 45 -248 121.5t-219 105.5q0 -102 -4 -180q-4 -70 -4 -258v-2z" />
<glyph unicode="&#xdf;" horiz-adv-x="2535" d="M82 1620q0 12 14.5 32.5t32.5 20.5q53 0 88 -188q510 92 823 92q162 0 283 -29q197 -47 197 -159q0 -141 -453 -400q430 70 743 70q219 0 381 -35q272 -57 277 -195q10 -471 -889 -860q-264 -114 -788 -114q-39 0 -65 19.5t-26 45.5q0 27 27 47q45 37 367.5 146.5 t382.5 109.5q51 0 51 -57q0 -37 -60 -60l-94 -24q-70 -20 -139 -41q-111 -35 -107 -51q354 49 715 252q453 256 453 571q0 115 -350 115q-297 0 -795 -80q-530 -86 -766 -184q16 -74 311 -1270q25 45 58 45q41 0 65 -74q20 -55 21 -106q0 -66 -23 -121q-25 -66 -67 -66 q-31 0 -68 35q-31 29 -211 743q-145 575 -188 773q-90 279 -123 438q-45 203 -49 403q-29 150 -29 156zM240 1376q55 -291 110 -547q778 209 998 476q27 33 26 59q1 92 -325 92q-367 0 -809 -80z" />
<glyph unicode="&#xe0;" horiz-adv-x="1058" d="M76 242q0 270 758 284q-201 39 -684 39q-47 0 -48 47q0 41 48 47q25 4 260 5q188 0 344 -25q266 -43 266 -141q0 -61 -213 -70q-352 -18 -399 -25q-222 -36 -240 -161q27 -25 119 -25q137 0 311 36t303 89q10 4 21 4q45 0 45 -45q0 -68 -299 -127q-248 -51 -373 -51 q-219 0 -219 119zM248 1028q0 31 37 55.5t90 24.5q98 0 184 -95t86 -196q0 -84 -35 -84q-90 0 -90 82v26.5v26.5q0 88 -104 88q-168 0 -168 72z" />
<glyph unicode="&#xe1;" horiz-adv-x="1071" d="M76 242q0 270 758 284q-201 39 -684 39q-47 0 -48 47q0 41 48 47q25 4 260 5q188 0 344 -25q266 -43 266 -141q0 -61 -213 -70q-352 -18 -399 -25q-222 -36 -240 -161q27 -25 119 -25q137 0 311 36t303 89q10 4 21 4q45 0 45 -45q0 -68 -299 -127q-248 -51 -373 -51 q-219 0 -219 119zM371 846q0 -78 30 -78q84 0 84 76v24q-2 16 -2 25q1 82 97 82q156 0 155 63q0 29 -33.5 51.5t-83.5 22.5q-90 0 -168.5 -87t-78.5 -179z" />
<glyph unicode="&#xe2;" horiz-adv-x="1083" d="M76 242q0 270 758 284q-201 39 -684 39q-47 0 -48 47q0 41 48 47q25 4 260 5q188 0 344 -25q266 -43 266 -141q0 -61 -213 -70q-352 -18 -399 -25q-222 -36 -240 -161q27 -25 119 -25q137 0 311 36t303 89q10 4 21 4q45 0 45 -45q0 -68 -299 -127q-248 -51 -373 -51 q-219 0 -219 119zM264 850q0 53 88 180q72 106 125 160q16 16 43 2q10 35 21 70q14 45 37 47q35 6 67 -84q102 -268 234 -377q14 -12 14 -27q0 -37 -37 -37q-10 1 -20 9q-145 119 -248 387q-55 -119 -144 -240q-98 -135 -141 -133q-39 2 -39 43z" />
<glyph unicode="&#xe3;" horiz-adv-x="1089" d="M76 242q0 270 758 284q-201 39 -684 39q-47 0 -48 47q0 41 48 47q25 4 260 5q188 0 344 -25q266 -43 266 -141q0 -61 -213 -70q-352 -18 -399 -25q-222 -36 -240 -161q27 -25 119 -25q137 0 311 36t303 89q10 4 21 4q45 0 45 -45q0 -68 -299 -127q-248 -51 -373 -51 q-219 0 -219 119zM170 831q-18 -35 16 -53q27 -14 62 29q59 72 90 94q74 55 182 55q76 0 125 -94q18 -33 31 -49q18 -25 42.5 -35t57.5 -10q100 0 162 59q25 27 25 52q0 20 -15.5 35.5t-40.5 15.5q-37 0 -65 -29q-6 -18 -11 -37q-10 -27 -36 -26q-18 0 -45 12q-12 4 -35 49 q-74 135 -195 135q-239 0 -350 -203z" />
<glyph unicode="&#xe4;" horiz-adv-x="1075" d="M76 242q0 270 758 284q-201 39 -684 39q-47 0 -48 47q0 41 48 47q25 4 260 5q188 0 344 -25q266 -43 266 -141q0 -61 -213 -70q-352 -18 -399 -25q-222 -36 -240 -161q27 -25 119 -25q137 0 311 36t303 89q10 4 21 4q45 0 45 -45q0 -68 -299 -127q-248 -51 -373 -51 q-219 0 -219 119zM406 889q-1 53 79 53q51 0 52 -49q0 -51 -52 -51q-80 0 -79 47zM653 893q1 -53 56 -53q59 0 59 59q0 12 -23.5 35.5t-37.5 23.5q-20 0 -37 -22.5t-17 -42.5z" />
<glyph unicode="&#xe5;" horiz-adv-x="1071" d="M76 242q0 270 758 284q-201 39 -684 39q-47 0 -48 47q0 41 48 47q25 4 260 5q188 0 344 -25q266 -43 266 -141q0 -61 -213 -70q-352 -18 -399 -25q-222 -36 -240 -161q27 -25 119 -25q137 0 311 36t303 89q10 4 21 4q45 0 45 -45q0 -68 -299 -127q-248 -51 -373 -51 q-219 0 -219 119zM438 877q0 55 78 55q51 0 51 -49q0 -53 -49 -54q-80 0 -80 48z" />
<glyph unicode="&#xe6;" horiz-adv-x="1290" d="M14 242q0 270 744 282v4q-197 37 -670 37q-47 0 -47 47q0 41 47 47q25 4 260 5q264 0 436 -43q39 78 114 135t144 57q70 0 111 -54t41 -126q0 -180 -297 -199q78 -51 328 -51q45 0 45 -47t-45 -47q-242 0 -324 35q4 -10 4 -23q0 -68 -299 -127q-248 -51 -373 -51 q-219 0 -219 119zM106 242q27 -25 119 -25q172 0 383 51q160 39 248 78q-49 33 -76 84l-274 -12q-174 -8 -264 -41q-121 -43 -136 -135zM877 590q51 -25 69 -53q154 23 154 96q-1 86 -58 86q-96 0 -165 -129z" />
<glyph unicode="&#xe7;" horiz-adv-x="1165" d="M31 215q0 106 108 197q82 70 240 135q121 47 244 94q61 27 98 27q45 0 45 -39q0 -35 -166 -111q-264 -119 -305 -141q-160 -88 -150 -158q14 -82 359 -82h106q61 2 76 2q66 0 197 3t196 3q49 0 49 -49q0 -39 -51 -51q-59 -14 -174 -16q-90 2 -178 2q-6 -16 -37 -70 q-96 -133 -166 -133q-57 0 -65 80q-2 25 30.5 43t69.5 18q14 0 25 -2q16 20 47 64q-571 6 -594 145q-4 18 -4 39z" />
<glyph unicode="&#xe8;" horiz-adv-x="653" d="M39 360q0 104 94 201.5t191 97.5q70 0 110.5 -54t40.5 -126q0 -180 -295 -198q76 -51 326 -52q45 0 45 -47t-45 -47q-195 0 -262 17q-150 33 -195 151q-10 27 -10 57zM88 967q0 23 28.5 42t69.5 19q76 0 141.5 -73.5t65.5 -149.5q0 -66 -26 -66q-70 0 -70 64v20 q2 14 2 21q0 67 -80 67q-131 0 -131 56zM133 365q74 12 148 26q100 23 100 88q0 86 -57 86q-61 0 -123 -68.5t-68 -131.5z" />
<glyph unicode="&#xe9;" horiz-adv-x="612" d="M39 360q0 104 94 201.5t191 97.5q70 0 110.5 -54t40.5 -126q0 -180 -295 -198q76 -51 326 -52q45 0 45 -47t-45 -47q-195 0 -262 17q-150 33 -195 151q-10 27 -10 57zM111 776q0 -68 28 -67q74 0 74 65v23q-2 14 -2 20q0 74 86 74q135 0 135 55q0 25 -29.5 45.5 t-72.5 20.5q-80 0 -149.5 -77t-69.5 -159zM133 365q74 12 148 26q100 23 100 88q0 86 -57 86q-61 0 -123 -68.5t-68 -131.5z" />
<glyph unicode="&#xea;" horiz-adv-x="624" d="M39 360q0 104 94 201.5t191 97.5q70 0 110.5 -54t40.5 -126q0 -180 -295 -198q76 -51 326 -52q45 0 45 -47t-45 -47q-195 0 -262 17q-150 33 -195 151q-10 27 -10 57zM68 786q0 35 55 119q47 68 82 105q10 10 28 0q6 23 14.5 48t22.5 27q23 4 45 -55q66 -174 152 -246 q8 -6 8 -16q0 -25 -24 -25q-7 1 -15 7q-92 78 -160 251q-37 -78 -92 -155q-66 -88 -94 -86q-23 0 -22 26zM133 365q74 12 148 26q100 23 100 88q0 86 -57 86q-61 0 -123 -68.5t-68 -131.5z" />
<glyph unicode="&#xeb;" horiz-adv-x="591" d="M39 360q0 104 94 201.5t191 97.5q70 0 110.5 -54t40.5 -126q0 -180 -295 -198q76 -51 326 -52q45 0 45 -47t-45 -47q-195 0 -262 17q-150 33 -195 151q-10 27 -10 57zM119 807q0 53 80 53q51 0 51 -49q0 -51 -51 -51q-80 0 -80 47zM133 365q74 12 148 26q100 23 100 88 q0 86 -57 86q-61 0 -123 -68.5t-68 -131.5zM367 811q0 -53 55 -53q59 0 59 59q0 12 -23.5 36t-37.5 24q-20 0 -36.5 -23t-16.5 -43z" />
<glyph unicode="&#xec;" horiz-adv-x="296" d="M-162 811q0 20 25.5 38.5t62.5 18.5q72 0 132.5 -67.5t60.5 -138.5q0 -59 -25 -60q-63 0 -63 57v19.5v19.5q0 64 -74 64q-119 0 -119 49zM51 451q0 51 49 51q51 0 62 -113q2 -16 2 -147q55 -18 55 -129q1 -95 -67 -95q-86 45 -86 287q0 25 -7.5 74t-7.5 72z" />
<glyph unicode="&#xed;" horiz-adv-x="303" d="M33 659q0 -68 26 -67q74 0 74 65v22.5v22.5q0 72 84 72q135 0 135 55q0 25 -29.5 45.5t-72.5 20.5q-80 0 -148.5 -77t-68.5 -159zM51 451q0 51 49 51q51 0 62 -113q2 -16 2 -147q55 -18 55 -129q1 -95 -67 -95q-86 45 -86 287q0 25 -7.5 74t-7.5 72z" />
<glyph unicode="&#xee;" horiz-adv-x="311" d="M-74 629q0 41 68 139q55 82 96 123q12 12 33 2q8 27 16 53q10 35 29 37q27 2 51 -65q78 -207 180 -291q10 -8 11 -21q0 -29 -29 -28q-8 0 -16 8q-111 90 -189 297q-43 -90 -110 -185q-76 -102 -111 -102q-29 2 -29 33zM51 451q0 51 49 51q51 0 62 -113q2 -16 2 -147 q55 -18 55 -129q1 -95 -67 -95q-86 45 -86 287q0 25 -7.5 74t-7.5 72z" />
<glyph unicode="&#xef;" horiz-adv-x="313" d="M-86 684q0 53 80 53q51 0 51 -49q0 -51 -51 -51q-80 0 -80 47zM51 451q0 51 49 51q51 0 62 -113q2 -16 2 -147q55 -18 55 -129q1 -95 -67 -95q-86 45 -86 287q0 25 -7.5 74t-7.5 72zM162 688q0 -53 55 -53q59 0 59 59q0 12 -23.5 36t-37.5 24q-20 0 -36.5 -22.5 t-16.5 -43.5z" />
<glyph unicode="&#xf1;" horiz-adv-x="1189" d="M27 508q0 57 55 57q74 0 129 -297q115 279 281 279q80 0 186 -131q147 -180 168 -199q92 -74 250 -94q53 -8 53 -57q-1 -58 -62 -58q-160 0 -296 111q-78 61 -187 205q-84 109 -115 108q-139 0 -237 -420q-23 -94 -76 -94t-53 100q0 92 -23 232q-27 160 -61 219 q-12 18 -12 39zM59 778q-18 -35 15 -53q29 -14 63 29q57 72 88 94q76 55 185 55q74 0 125 -94q18 -33 28 -49q20 -25 45 -35t58 -10q100 0 159 59q27 27 27 51q0 20 -15.5 36t-41.5 16q-35 0 -64 -29q-6 -18 -12 -35q-8 -29 -35 -29q-18 0 -45 13q-12 4 -37 49 q-72 135 -192 135q-240 0 -351 -203z" />
<glyph unicode="&#xf2;" horiz-adv-x="798" d="M25 381q0 109 114.5 226.5t222.5 117.5q88 0 228 -111q147 -117 147 -206q0 -111 -117.5 -217.5t-230.5 -106.5q-111 0 -233 92q-131 96 -131 205zM123 381q0 -61 100 -131q94 -66 166 -66q74 0 160 76t86 146q0 59 -102.5 131.5t-163.5 72.5q-86 0 -170 -94 q-74 -82 -76 -135zM147 1092q0 29 35 52t84 23q92 0 172 -89t80 -183q0 -76 -33 -76q-86 0 -86 76q0 8 2 25v24q0 82 -96 82q-158 0 -158 66z" />
<glyph unicode="&#xf3;" horiz-adv-x="782" d="M25 381q0 109 114.5 226.5t222.5 117.5q88 0 228 -111q147 -117 147 -206q0 -111 -117.5 -217.5t-230.5 -106.5q-111 0 -233 92q-131 96 -131 205zM123 381q0 -61 100 -131q94 -66 166 -66q74 0 160 76t86 146q0 59 -102.5 131.5t-163.5 72.5q-86 0 -170 -94 q-74 -82 -76 -135zM301 887q0 -78 35 -78q86 0 86 76q0 8 -2 26v25q0 84 98 84q160 0 160 65q0 29 -36 52.5t-85 23.5q-92 0 -174 -90t-82 -184z" />
<glyph unicode="&#xf4;" horiz-adv-x="788" d="M25 381q0 109 114.5 226.5t222.5 117.5q88 0 228 -111q147 -117 147 -206q0 -111 -117.5 -217.5t-230.5 -106.5q-111 0 -233 92q-131 96 -131 205zM84 795q0 49 78 166q66 96 114 145q14 14 41 2q8 31 19 63q12 41 33 43q31 4 61 -77q92 -244 213 -344q12 -10 12 -25 q0 -33 -32 -33q-11 0 -21 8q-131 106 -223 353q-51 -109 -131 -217q-90 -123 -129 -121q-35 0 -35 37zM123 381q0 -61 100 -131q94 -66 166 -66q74 0 160 76t86 146q0 59 -102.5 131.5t-163.5 72.5q-86 0 -170 -94q-74 -82 -76 -135z" />
<glyph unicode="&#xf5;" horiz-adv-x="841" d="M25 381q0 109 114.5 226.5t222.5 117.5q88 0 228 -111q147 -117 147 -206q0 -111 -117.5 -217.5t-230.5 -106.5q-111 0 -233 92q-131 96 -131 205zM59 819q-18 -35 15 -53q29 -14 63 29q57 72 88 94q76 55 185 55q74 0 125 -94q18 -33 28 -49q20 -25 45 -35t58 -10 q100 0 159 59q27 27 27 51q0 20 -15.5 36t-41.5 16q-35 0 -64 -29q-6 -18 -12 -35q-8 -29 -35 -29q-18 0 -45 13q-12 4 -37 49q-72 135 -192 135q-240 0 -351 -203zM123 381q0 -61 100 -131q94 -66 166 -66q74 0 160 76t86 146q0 59 -102.5 131.5t-163.5 72.5 q-86 0 -170 -94q-74 -82 -76 -135z" />
<glyph unicode="&#xf6;" horiz-adv-x="827" d="M25 381q0 109 114.5 226.5t222.5 117.5q88 0 228 -111q147 -117 147 -206q0 -111 -117.5 -217.5t-230.5 -106.5q-111 0 -233 92q-131 96 -131 205zM123 381q0 -61 100 -131q94 -66 166 -66q74 0 160 76t86 146q0 59 -102.5 131.5t-163.5 72.5q-86 0 -170 -94 q-74 -82 -76 -135zM180 889q0 53 80 53q51 0 51 -49q0 -51 -51 -51q-80 0 -80 47zM428 893q0 -53 55 -53q59 0 60 59q0 12 -23.5 35.5t-38.5 23.5q-20 0 -36.5 -22.5t-16.5 -42.5z" />
<glyph unicode="&#xf7;" horiz-adv-x="1067" d="M29 342q0 68 94 68q49 0 287 77q84 35 170 70q111 43 170 43q80 0 215 -45q45 -16 45 -66q0 -29 -18.5 -49t-47.5 -20q-23 0 -91 21.5t-105 21.5q-43 0 -148 -43q-147 -61 -151 -64q-256 -84 -330 -84q-90 0 -90 70zM381 715q0 143 84 143q98 0 98 -143 q0 -37 -25.5 -64.5t-62.5 -27.5q-39 0 -66.5 27.5t-27.5 64.5zM408 109q0 -45 30.5 -76t75.5 -31q25 0 66 43t41 68q0 35 -40 64.5t-79 29.5t-66.5 -28.5t-27.5 -69.5z" />
<glyph unicode="&#xf8;" horiz-adv-x="827" d="M-14 8q0 61 116 213q-78 80 -77 160q0 109 114.5 226.5t222.5 117.5q68 0 179 -74q170 141 186 142q53 0 53 -52q0 -29 -67 -84q-45 -35 -90 -71q115 -100 114 -178q0 -111 -117.5 -217.5t-230.5 -106.5q-96 0 -209 74q-53 -74 -90 -166q-16 -37 -51 -37q-53 0 -53 53z M123 381q0 -39 43 -84q113 129 293 285q-57 29 -90 28q-70 0 -158 -80.5t-88 -148.5zM244 236q84 -51 145 -52q72 0 159 76t87 146q0 52 -86 120q-193 -160 -305 -290z" />
<glyph unicode="&#xf9;" horiz-adv-x="1177" d="M-20 432q0 76 20 156q29 115 82 114q51 0 51 -59q0 -37 -18.5 -106.5t-18.5 -106.5q0 -295 303 -295q154 0 219 80q31 39 60 152q20 80 67 79q47 0 60 -59q29 -139 121 -213q47 -37 157 -82q78 -33 78 -69q0 -29 -21.5 -46.5t-49.5 -11.5q-219 52 -342 242 q-94 -188 -349 -189q-197 0 -308 109t-111 305zM139 1006q0 29 35 52t84 23q94 0 175 -90t81 -184q0 -80 -35 -80q-84 0 -84 78v25.5v25.5q0 84 -98 84q-158 0 -158 66z" />
<glyph unicode="&#xfa;" horiz-adv-x="1224" d="M-20 432q0 76 20 156q29 115 82 114q51 0 51 -59q0 -37 -18.5 -106.5t-18.5 -106.5q0 -295 303 -295q154 0 219 80q31 39 60 152q20 80 67 79q47 0 60 -59q29 -139 121 -213q47 -37 157 -82q78 -33 78 -69q0 -29 -21.5 -46.5t-49.5 -11.5q-219 52 -342 242 q-94 -188 -349 -189q-197 0 -308 109t-111 305zM338 827q0 -82 35 -82q88 0 88 80v27q-2 16 -2 27q0 86 102 86q164 0 164 67q0 29 -37 53.5t-86 24.5q-96 0 -180 -92t-84 -191z" />
<glyph unicode="&#xfb;" horiz-adv-x="1191" d="M-20 432q0 76 20 156q29 115 82 114q51 0 51 -59q0 -37 -18.5 -106.5t-18.5 -106.5q0 -295 303 -295q154 0 219 80q31 39 60 152q20 80 67 79q47 0 60 -59q29 -139 121 -213q47 -37 157 -82q78 -33 78 -69q0 -29 -21.5 -46.5t-49.5 -11.5q-219 52 -342 242 q-94 -188 -349 -189q-197 0 -308 109t-111 305zM213 842q0 55 88 184q74 109 127 162q16 16 45 2q10 35 21 72q14 45 36 47q35 6 70 -86q102 -272 238 -383q12 -10 12 -27q0 -37 -37 -37q-10 0 -22 8q-145 121 -248 392q-57 -119 -148 -242q-100 -135 -143 -135 q-39 2 -39 43z" />
<glyph unicode="&#xfc;" horiz-adv-x="1241" d="M-20 432q0 76 20 156q29 115 82 114q51 0 51 -59q0 -37 -18.5 -106.5t-18.5 -106.5q0 -295 303 -295q154 0 219 80q31 39 60 152q20 80 67 79q47 0 60 -59q29 -139 121 -213q47 -37 157 -82q78 -33 78 -69q0 -29 -21.5 -46.5t-49.5 -11.5q-219 52 -342 242 q-94 -188 -349 -189q-197 0 -308 109t-111 305zM242 889q0 53 80 53q51 0 51 -49q0 -51 -51 -51q-80 0 -80 47zM489 893q1 -53 56 -53q59 0 59 59q0 12 -23.5 35.5t-37.5 23.5q-20 0 -37 -22.5t-17 -42.5z" />
<glyph unicode="&#xfd;" horiz-adv-x="653" d="M-47 -483q0 145 142.5 274t287.5 129q39 0 64.5 -18.5t25.5 -40.5q0 -49 -90 -49q-100 0 -212 -97.5t-112 -197.5q0 -201 181 -338q166 -129 374 -129q158 0 254 119q90 111 90 272q0 174 -227 461q-176 205 -354 407q-98 -63 -211 -63q-174 0 -174 223q0 111 59 111 q51 0 51 -64q0 -14 -2 -36.5t-2 -33.5q0 -96 84 -96q66 0 137 49q-10 25 -10 50q0 74 78 73q78 0 78 -82q0 -27 -10 -53q188 -219 376 -440q233 -297 234 -506q0 -207 -121 -348q-127 -150 -332 -150q-252 0 -448 158q-211 170 -211 416zM180 770q0 -70 29 -70q74 0 74 68 v21.5v23.5q0 72 84 72q139 0 139 57q0 25 -31 45.5t-74 20.5q-80 0 -150.5 -78t-70.5 -160z" />
<glyph unicode="&#xfe;" horiz-adv-x="391" d="M51 293q0 35 47 35q0 180 4 317q4 125 4 344q0 102 52 103q41 0 47 -127q0 8 0 -111q37 -2 98 -27q121 -47 244 -94q156 -68 239 -135q109 -90 109 -197q0 -20 -4 -39q-25 -147 -694 -145q-2 -117 8 -188q23 -16 22 -54q0 -35 -17 -63.5t-42 -28.5q-45 0 -62 176 q-6 68 -8 156l-6 16q-14 2 -27.5 22.5t-13.5 39.5zM197 326h43q10 0 75 -2h107q344 0 356 82q10 59 -106 133q-74 45 -248 121.5t-219 105.5q0 -102 -4 -180q-4 -70 -4 -258v-2z" />
<glyph unicode="&#xff;" horiz-adv-x="704" d="M-47 -483q0 145 142.5 274t287.5 129q39 0 64.5 -18.5t25.5 -40.5q0 -49 -90 -49q-100 0 -212 -97.5t-112 -197.5q0 -201 181 -338q166 -129 374 -129q158 0 254 119q90 111 90 272q0 174 -227 461q-176 205 -354 407q-98 -63 -211 -63q-174 0 -174 223q0 111 59 111 q51 0 51 -64q0 -14 -2 -36.5t-2 -33.5q0 -96 84 -96q66 0 137 49q-10 25 -10 50q0 74 78 73q78 0 78 -82q0 -27 -10 -53q188 -219 376 -440q233 -297 234 -506q0 -207 -121 -348q-127 -150 -332 -150q-252 0 -448 158q-211 170 -211 416zM57 725q0 53 80 53q51 0 51 -49 q0 -51 -51 -51q-80 0 -80 47zM305 729q0 -53 55 -53q59 0 60 59q0 12 -23.5 36t-38.5 24q-20 0 -36.5 -22.5t-16.5 -43.5z" />
<glyph unicode="&#x152;" horiz-adv-x="5543" d="M20 483q0 287 441 676q354 311 700 473q-41 -14 -53 -14q-55 0 -55 51q0 29 24 47q106 84 318 127q170 37 344 37q262 0 530 -76q281 -78 488 -217q287 152 843 393q662 291 793 291q61 0 61 -61t-61 -62q-129 0 -748 -280q-426 -195 -770 -371q82 -70 142 -149 q207 35 413 67q238 35 416 35q66 0 121 -20q70 -25 70 -66q0 -31 -37 -68q-59 -57 -387 -196q-219 -88 -441 -178q6 -215 -137 -390q-106 -131 -328 -264q209 39 840 203q297 78 594 154q358 84 604 84q207 0 412 -41q315 -59 315 -185q0 -61 -63 -61q-23 0 -49 29 q-20 23 -41 45q-39 31 -275 61q-205 29 -299 29q-233 0 -588 -84q-289 -74 -579 -150q-203 -53 -408 -106q-233 -57 -409 -92q-131 -10 -383 -50q-47 -12 -127 -45q-92 -37 -125 -47q-514 -164 -1008 -164q-391 0 -692 125q-406 170 -406 510zM129 483q0 -287 375 -426 q268 -100 608 -100q504 0 1012 170q-162 47 -162 162q0 178 465 430q199 106 627 289q-20 111 -80 209q-293 -45 -523 -46q-113 0 -112 95q0 86 311 262q-190 115 -440 182q-242 63 -471 64q-135 0 -299 -45q70 14 129 14q88 0 219 -37q162 -47 162 -109q0 -53 -54 -53 q-12 0 -129.5 47t-205.5 47q-154 0 -357 -106q-338 -176 -651 -440q-424 -356 -424 -609zM2089 299q0 -76 205 -76q39 0 84 2q680 297 688 652q-977 -416 -977 -578zM2523 1296q146 0 369 33q-51 61 -121 115q-78 -41 -248 -148zM3088 1235q47 -88 68 -184q221 86 655 274 q-201 -8 -723 -90z" />
<glyph unicode="&#x153;" horiz-adv-x="1175" d="M25 381q0 109 114.5 226.5t222.5 117.5q59 0 159 -61.5t161 -137.5q43 70 110.5 117t131.5 47q70 0 110.5 -54t40.5 -126q0 -182 -295 -199q76 -51 326 -51q45 0 45 -47t-45 -47q-170 0 -227 8q-131 20 -191 94q-53 -78 -138 -131t-161 -53q-111 0 -233 92 q-131 96 -131 205zM123 381q0 -61 100 -131q94 -66 166 -66q74 0 160 76t86 146q0 59 -102.5 131.5t-163.5 72.5q-86 0 -170 -94q-74 -82 -76 -135zM735 395q74 12 148 27q98 23 98 88q0 86 -57 86q-61 0 -122 -68.5t-67 -132.5z" />
<glyph unicode="&#x178;" horiz-adv-x="1429" d="M25 694q0 223 73 224q57 0 58 -123q0 -43 -8.5 -117t-8.5 -84q0 -412 189 -412q193 0 454 303q-236 297 -235 586q0 158 71 307q86 186 226 187q156 0 237 -213q61 -160 62 -348q0 -229 -213 -517q129 -143 317 -284q344 -256 479 -381q303 -285 304 -486 q0 -213 -299 -346q-244 -110 -488 -110q-313 0 -596 141q-344 172 -344 453q0 156 156 336q80 92 207 186q154 117 237 117q55 0 55 -58q0 -57 -54 -57t-189 -109q-111 -88 -170 -155q-129 -143 -129 -260q0 -225 317 -367q254 -113 514 -113q184 0 402 84q266 104 266 256 q0 160 -295 428q-129 119 -438 349q-190 141 -326 286q-293 -330 -524 -329q-201 0 -269 231q-39 131 -38 395zM180 1565q0 53 80 53q51 0 51 -49q0 -51 -51 -51q-80 0 -80 47zM428 1569q0 -53 55 -53q59 0 60 59q0 12 -23.5 35.5t-38.5 23.5q-20 0 -36.5 -22.5t-16.5 -42.5 zM662 1071q0 -240 192 -496q176 248 176 429q0 129 -39 264q-53 182 -149 182q-78 0 -135 -154q-45 -127 -45 -225z" />
<glyph unicode="&#x2c6;" horiz-adv-x="788" d="M-2 1108q0 66 108 223q88 129 154 197q20 18 53 2q14 43 27 86q16 53 45 57q33 4 55 -35q4 -8 29 -69q123 -330 287 -465q16 -12 16 -33q0 -45 -45 -45q-15 0 -27 10q-176 145 -303 477q-70 -145 -176 -294q-123 -166 -176 -164q-16 2 -31.5 18.5t-15.5 34.5z" />
<glyph unicode="&#x2dc;" horiz-adv-x="905" d="M59 1393q-18 -35 15 -54q29 -14 63 29q57 72 88 94q76 55 185 56q74 0 125 -95q18 -33 28 -49q20 -25 45 -35t58 -10q100 0 159 60q27 27 27 51q0 20 -15.5 35.5t-41.5 15.5q-35 0 -64 -29q-6 -18 -12 -35q-8 -29 -35 -28q-18 0 -45 12q-12 4 -37 49q-72 135 -192 135 q-240 1 -351 -202z" />
<glyph unicode="&#x2000;" horiz-adv-x="1327" />
<glyph unicode="&#x2001;" horiz-adv-x="2654" />
<glyph unicode="&#x2002;" horiz-adv-x="1327" />
<glyph unicode="&#x2003;" horiz-adv-x="2654" />
<glyph unicode="&#x2004;" horiz-adv-x="884" />
<glyph unicode="&#x2005;" horiz-adv-x="663" />
<glyph unicode="&#x2006;" horiz-adv-x="442" />
<glyph unicode="&#x2007;" horiz-adv-x="442" />
<glyph unicode="&#x2008;" horiz-adv-x="331" />
<glyph unicode="&#x2009;" horiz-adv-x="530" />
<glyph unicode="&#x200a;" horiz-adv-x="147" />
<glyph unicode="&#x2010;" d="M6 639q0 68 94 68q49 0 287 77q84 35 170 68q113 45 170 45q80 0 215 -45q47 -16 47 -66q0 -29 -19.5 -49t-47.5 -20q-23 0 -91.5 21.5t-105.5 21.5q-41 0 -147 -45q-147 -59 -152 -62q-256 -84 -328 -84q-92 0 -92 70z" />
<glyph unicode="&#x2011;" d="M6 639q0 68 94 68q49 0 287 77q84 35 170 68q113 45 170 45q80 0 215 -45q47 -16 47 -66q0 -29 -19.5 -49t-47.5 -20q-23 0 -91.5 21.5t-105.5 21.5q-41 0 -147 -45q-147 -59 -152 -62q-256 -84 -328 -84q-92 0 -92 70z" />
<glyph unicode="&#x2012;" d="M6 639q0 68 94 68q49 0 287 77q84 35 170 68q113 45 170 45q80 0 215 -45q47 -16 47 -66q0 -29 -19.5 -49t-47.5 -20q-23 0 -91.5 21.5t-105.5 21.5q-41 0 -147 -45q-147 -59 -152 -62q-256 -84 -328 -84q-92 0 -92 70z" />
<glyph unicode="&#x2013;" d="M6 25q0 68 94 67q49 0 287 78q43 14 109 16q43 2 118 -2q86 -4 113 -4q80 0 215 -45q47 -16 47 -65q0 -29 -19.5 -49.5t-47.5 -20.5q-23 0 -91.5 21.5t-105.5 21.5q-18 0 -91 4t-112 4q-63 -2 -96 -12q-256 -84 -328 -84q-92 0 -92 70z" />
<glyph unicode="&#x2014;" horiz-adv-x="1331" d="M6 45q0 68 94 68q49 0 287 77q94 31 647 31q80 0 215 -45q47 -16 47 -65q0 -29 -19.5 -49.5t-47.5 -20.5q-23 0 -91.5 21.5t-105.5 21.5q-532 0 -606 -25q-256 -84 -328 -84q-92 0 -92 70z" />
<glyph unicode="&#x2018;" horiz-adv-x="380" d="M39 1313q0 166 92 258q49 49 82 49q12 0 18 -8q43 -43 43 -78t-59 -89t-59 -93q0 -41 51 -90q98 -100 98 -164q-2 -57 -67 -58q-66 0 -123 58q-76 76 -76 215z" />
<glyph unicode="&#x2019;" horiz-adv-x="509" d="M14 1198q0 109 99 109q10 0 30 -2h33q107 0 107 125q0 201 84 200q35 0 64.5 -45t29.5 -106q0 -119 -114 -221.5t-232 -102.5q-100 0 -101 43z" />
<glyph unicode="&#x201a;" horiz-adv-x="364" d="M-53 -66q12 -119 94 -118q104 0 246 196q53 72 53 103q0 68 -66 67q-25 0 -53 -37q-20 -29 -41 -57l-49 -68q-16 6 -37 7q-55 0 -103 -28t-44 -65z" />
<glyph unicode="&#x201c;" horiz-adv-x="901" d="M12 1307q0 117 114 219t232 102q100 0 101 -41q0 -109 -99 -108h-30q-23 2 -33 2q-107 0 -107 -125q0 -201 -81 -201q-37 0 -67 44t-30 108zM414 1294q0 117 113.5 219.5t234.5 102.5q98 0 98 -41q0 -109 -96 -109h-33q-23 2 -33 2q-104 0 -104 -125q0 -201 -84 -200 q-37 0 -66.5 44t-29.5 107z" />
<glyph unicode="&#x201d;" horiz-adv-x="901" d="M14 1198q0 109 99 109q10 0 30 -2h33q107 0 107 125q0 201 84 200q35 0 64.5 -45t29.5 -106q0 -119 -114 -221.5t-232 -102.5q-100 0 -101 43zM418 1186q0 109 96 108q10 0 33 -2h31q106 0 106 125q0 201 84 201q37 0 65.5 -45t28.5 -107q0 -119 -113.5 -220t-232.5 -101 q-98 0 -98 41z" />
<glyph unicode="&#x201e;" horiz-adv-x="516" d="M41 256q-2 16 16 20q16 6 33 0q45 -18 60 -92q12 -57 14 -204q2 -131 12 -152q2 -8 2 -18q0 -43 -47 -43q-27 -1 -39 26q-14 37 -16 187q-2 86 -35 276zM264 137q0 35 11.5 62.5t39.5 27.5q47 0 47 -43q0 -8 -4 -16q-16 -41 19 -141q18 -45 61 -138q11 -20 25 -61 q4 -29 -25 -43q-10 -6 -20 -6q-27 0 -62 71q-92 199 -92 287z" />
<glyph unicode="&#x2022;" horiz-adv-x="444" d="M10 809q0 -78 53.5 -133t131.5 -55q43 0 115.5 76.5t72.5 119.5q0 61 -70.5 113.5t-136.5 52.5q-72 0 -119 -51t-47 -123z" />
<glyph unicode="&#x2026;" horiz-adv-x="915" d="M33 109q0 -45 30.5 -76t73.5 -31q25 0 67 43t42 68q0 35 -41 64.5t-78 29.5q-41 0 -67.5 -28.5t-26.5 -69.5zM322 104q0 -45 30.5 -76.5t75.5 -31.5q25 0 66 44t41 69q0 35 -40 64.5t-79 29.5t-66.5 -29t-27.5 -70zM625 92q0 -43 30.5 -74.5t73.5 -31.5q25 0 67 43t42 67 q0 37 -41 67t-78 30q-41 0 -67.5 -30t-26.5 -71z" />
<glyph unicode="&#x202f;" horiz-adv-x="530" />
<glyph unicode="&#x2039;" horiz-adv-x="1013" d="M-6 236q4 -37 43 -52q29 -8 137 -18q494 -41 690 -174q25 -18 49 -19q20 0 37 13q33 27 19 69q-25 78 -121 78q4 0 -14 -8q-223 111 -592 143q205 100 438 297q227 188 227 246q0 37 -41 49q-36 11 -61 -26q-43 -68 -266 -246q-268 -211 -447 -266q-104 -31 -98 -86z" />
<glyph unicode="&#x203a;" horiz-adv-x="1009" d="M20 678q0 -45 46 -94q51 -59 131 -84q45 -14 323 -23q268 -8 350 -20q-47 -41 -196 -154q-115 -86 -275 -223q-14 -10 -34 -29q-53 -53 -54 -94q0 -29 24.5 -52.5t57.5 -8.5q57 23 80 129q74 66 258 204q168 127 215 171t47 75q0 53 -90 70q-80 16 -381 24 q-133 4 -299 19q-49 16 -84 49q-25 27 -26 43q-9 45 -52 41q-41 -4 -41 -43z" />
<glyph unicode="&#x205f;" horiz-adv-x="663" />
<glyph unicode="&#x2122;" horiz-adv-x="915" d="M-172 1483q0 18 23.5 30.5t314.5 98.5q4 35 33 35q18 0 26 -19q213 63 264 64q61 0 62 -33q0 -31 -57 -53q-49 -20 -86 -21q-37 0 -29 33q-39 -18 -154 -51q-2 -287 27 -365q20 -18 20 -51q0 -49 -36 -49q-74 0 -72 446q-319 -94 -307 -94q-29 0 -29 29zM410 1157 q0 45 15 136t15 139q0 8 -4 36.5t-4 47.5q0 53 37 53q41 0 41 -64q27 -8 27 -35q0 -2 -19 -79q37 -176 92 -177q43 0 90 164q43 145 43 207q0 131 -4 80q4 57 37 57q37 0 41 -53q-4 53 -4 -80q0 -141 55 -297q45 -125 45 -219q0 -33 -34 -33q-35 0 -35 33q0 63 -27 158 q-39 129 -43 155q-68 -240 -162 -239q-68 0 -116 96q-4 -39 -9 -78q-12 -53 -41 -53q-37 0 -36 45z" />
<glyph unicode="&#x25fc;" horiz-adv-x="665" d="M0 0v666h666v-666h-666z" />
</font>
</defs>
</svg>
